<svg width="325.000000" height="12.000000" viewBox="0 0 325 12" fill="none" xmlns="http://www.w3.org/2000/svg" xmlns:xlink="http://www.w3.org/1999/xlink">
	<desc>
			Created with Pixso.
	</desc>
	<defs/>
	<path id="Сайт Концертно - экскурсионных программ" d="M18.71 0.62Q18.71 0.46 18.77 0.34Q18.81 0.25 18.88 0.18Q18.96 0.09 19.07 0.04L19.07 0.04Q19.18 0 19.31 0C19.45 0 19.57 0.03 19.66 0.11Q19.8 0.23 20.04 0.68C20.24 1.08 20.47 1.28 20.73 1.28C20.98 1.28 21.21 1.08 21.41 0.68Q21.61 0.29 21.76 0.15C21.86 0.05 21.99 0 22.15 0C22.32 0 22.46 0.06 22.57 0.18Q22.63 0.26 22.67 0.35Q22.73 0.47 22.73 0.62C22.73 0.96 22.54 1.22 22.15 1.4C21.76 1.57 21.29 1.66 20.74 1.66C20.15 1.66 19.66 1.57 19.28 1.39Q18.88 1.2 18.76 0.9Q18.71 0.77 18.71 0.62ZM26.49 1.85L26.86 1.85C26.88 1.89 26.9 1.93 26.92 1.95C27.03 2.15 27.11 2.28 27.17 2.34Q27.25 2.37 27.98 2.37Q28.44 2.37 28.79 2.36L28.91 2.34L29.62 2.33L30.96 2.35L32.79 2.35L33.14 2.29Q33.21 2.23 33.3 1.99C33.32 1.95 33.34 1.9 33.37 1.83L33.63 1.83C33.67 1.83 33.72 1.83 33.8 1.83C33.81 2.12 33.81 2.56 33.81 3.14L33.82 3.69L33.81 4.01C33.81 4.12 33.8 4.21 33.79 4.29C33.62 4.35 33.48 4.38 33.36 4.39C33.26 4.23 33.15 4 33.02 3.69C32.9 3.38 32.83 3.21 32.8 3.17C32.75 3.12 32.7 3.08 32.63 3.07Q32.49 3.04 31.38 3.04C31.27 3.04 31.13 3.04 30.97 3.06C30.94 3.22 30.93 3.36 30.93 3.46L30.94 4.3L30.94 6.14L30.96 8.12L30.95 8.94C30.95 9.22 30.98 9.44 31.03 9.59C31.09 9.62 31.2 9.64 31.37 9.67C31.41 9.67 31.55 9.71 31.81 9.77C31.93 9.8 32.03 9.83 32.12 9.87C32.14 10.02 32.15 10.11 32.15 10.14C32.15 10.18 32.15 10.23 32.14 10.31C32.05 10.31 31.98 10.31 31.92 10.31C31.52 10.31 31.17 10.3 30.89 10.27Q30.46 10.22 29.35 10.22C29.23 10.22 28.88 10.24 28.31 10.29Q27.97 10.32 27.87 10.32C27.86 10.26 27.86 10.21 27.86 10.17L27.85 10.03L27.85 9.98C27.94 9.86 28.1 9.77 28.34 9.71C28.75 9.61 29.03 9.51 29.19 9.43C29.23 9.35 29.26 9.25 29.26 9.12Q29.3 8.37 29.3 6.73L29.28 4.36C29.28 3.71 29.26 3.32 29.24 3.18C29.23 3.14 29.22 3.11 29.2 3.1C29.18 3.08 29.15 3.06 29.12 3.06C28.99 3.04 28.6 3.04 27.92 3.04C27.55 3.04 27.3 3.07 27.18 3.15C27.01 3.25 26.75 3.54 26.41 4C26.32 4.13 26.24 4.2 26.2 4.2C26.01 4.1 25.9 4.02 25.85 3.96C25.97 3.68 26.14 3.14 26.35 2.33C26.42 2.09 26.46 1.93 26.49 1.85ZM92.97 1.85L93.34 1.85C93.37 1.89 93.39 1.93 93.4 1.95C93.51 2.15 93.59 2.28 93.65 2.34C93.7 2.36 93.97 2.37 94.46 2.37C94.77 2.37 95.04 2.36 95.27 2.36L95.39 2.34L96.11 2.33L97.44 2.35L99.27 2.35L99.62 2.29C99.67 2.25 99.72 2.15 99.78 1.99C99.8 1.95 99.82 1.9 99.85 1.83L100.11 1.83C100.15 1.83 100.21 1.83 100.29 1.83C100.29 2.12 100.29 2.56 100.29 3.14L100.3 3.69L100.29 4.01C100.29 4.12 100.28 4.21 100.27 4.29C100.11 4.35 99.97 4.38 99.84 4.39C99.74 4.23 99.63 4 99.51 3.69C99.39 3.38 99.31 3.21 99.28 3.17C99.23 3.12 99.18 3.08 99.12 3.07C99.02 3.05 98.6 3.04 97.86 3.04C97.75 3.04 97.61 3.04 97.45 3.06C97.42 3.22 97.41 3.36 97.41 3.46L97.42 4.3L97.42 6.14L97.44 8.12L97.44 8.94C97.44 9.22 97.46 9.44 97.51 9.59C97.57 9.62 97.69 9.64 97.86 9.67C97.89 9.67 98.03 9.71 98.29 9.77C98.41 9.8 98.52 9.83 98.61 9.87C98.63 10.02 98.64 10.11 98.64 10.14C98.64 10.18 98.63 10.23 98.62 10.31Q98.49 10.31 98.41 10.31C98 10.31 97.66 10.3 97.37 10.27C97.09 10.23 96.57 10.22 95.83 10.22Q95.65 10.22 94.79 10.29C94.56 10.31 94.42 10.32 94.35 10.32C94.35 10.26 94.34 10.21 94.34 10.17L94.33 10.03L94.33 9.98C94.42 9.86 94.58 9.77 94.82 9.71C95.23 9.61 95.52 9.51 95.68 9.43C95.71 9.35 95.74 9.25 95.75 9.12C95.77 8.62 95.79 7.82 95.79 6.73L95.76 4.36C95.76 3.71 95.75 3.32 95.72 3.18C95.71 3.14 95.7 3.11 95.68 3.1C95.66 3.08 95.63 3.06 95.6 3.06C95.48 3.04 95.08 3.04 94.4 3.04C94.03 3.04 93.79 3.07 93.66 3.15C93.49 3.25 93.24 3.54 92.9 4C92.8 4.13 92.73 4.2 92.68 4.2C92.5 4.1 92.38 4.02 92.33 3.96C92.45 3.68 92.62 3.14 92.84 2.33C92.9 2.09 92.95 1.93 92.97 1.85ZM6.5 2.33C6.55 2.45 6.65 2.81 6.81 3.4C6.88 3.67 6.92 3.95 6.92 4.25L6.39 4.25C6.01 3.68 5.62 3.28 5.21 3.03Q5.01 2.9 4.78 2.82Q4.36 2.65 3.87 2.65Q3.44 2.65 3.09 2.82Q2.69 3.01 2.39 3.41Q1.63 4.44 1.63 6.27C1.63 6.98 1.67 7.48 1.76 7.78Q1.97 8.52 2.29 8.98C2.46 9.21 2.68 9.4 2.94 9.54Q3.21 9.68 3.49 9.75Q3.76 9.82 4.06 9.82Q4.17 9.82 4.27 9.81Q4.81 9.75 5.31 9.39C5.72 9.1 6.1 8.68 6.47 8.11C6.62 8.08 6.81 8.06 7.05 8.06C7.03 8.22 7.01 8.38 6.97 8.55Q6.95 8.65 6.83 9.35L6.78 9.54L6.7 9.83C6.46 10.03 6.12 10.17 5.68 10.27Q5.03 10.42 4.08 10.42C3.59 10.42 3.14 10.37 2.7 10.27C2.27 10.18 1.9 10.03 1.6 9.82C1.15 9.52 0.79 9.19 0.54 8.84Q0.33 8.55 0.18 8.24L0.18 8.24Q0.05 7.98 -0.03 7.7Q-0.22 7.08 -0.22 6.31Q-0.22 5.03 0.33 4.05Q0.58 3.61 0.94 3.23Q1.39 2.76 1.94 2.47Q2.8 2.02 3.91 2.02Q4.64 2.02 5.29 2.1Q5.94 2.17 6.5 2.33ZM136.64 5.88C136.59 4.78 136.39 3.96 136.01 3.44C135.64 2.92 135.08 2.65 134.33 2.65C133.88 2.65 133.46 2.76 133.08 2.98Q132.5 3.3 131.87 4.25L131.33 4.25C131.34 3.76 131.48 3.14 131.76 2.4C132.52 2.15 133.41 2.02 134.44 2.02Q136 2.02 136.97 2.77L136.97 2.77Q137.22 2.96 137.44 3.2C138.13 3.99 138.48 4.99 138.48 6.21C138.48 7.56 138.08 8.6 137.3 9.33C136.52 10.06 135.48 10.42 134.18 10.42Q132.48 10.42 131.56 9.83C131.39 9.16 131.27 8.57 131.21 8.06C131.45 8.06 131.64 8.08 131.78 8.11C132.36 9.25 133.15 9.82 134.16 9.82Q134.72 9.82 135.17 9.6Q135.61 9.4 135.95 9C136.42 8.45 136.66 7.59 136.66 6.43L136.37 6.44Q136.28 6.44 136.08 6.43L135.15 6.41Q134.25 6.41 134.11 6.53C134.02 6.61 133.93 6.88 133.84 7.35L133.75 7.76L133.33 7.76L133.33 7.3L133.36 6.55L133.36 6.33L133.34 5.44C133.34 5.18 133.35 4.89 133.37 4.54L133.7 4.54C133.72 4.54 133.74 4.54 133.79 4.54C133.89 5.21 134.01 5.6 134.15 5.72C134.29 5.84 134.97 5.9 136.21 5.9L136.64 5.88ZM154.86 2.33C154.91 2.45 155.01 2.81 155.17 3.4C155.24 3.67 155.28 3.95 155.28 4.25L154.75 4.25Q154.18 3.4 153.57 3.03C153.17 2.78 152.72 2.65 152.23 2.65C151.62 2.65 151.12 2.91 150.75 3.41C150.24 4.1 149.99 5.05 149.99 6.27C149.99 6.98 150.03 7.48 150.12 7.78Q150.33 8.52 150.65 8.98C150.82 9.21 151.04 9.4 151.3 9.54C151.65 9.72 152.02 9.82 152.42 9.82C152.85 9.82 153.27 9.68 153.67 9.39C154.08 9.1 154.46 8.68 154.83 8.11C154.98 8.08 155.17 8.06 155.41 8.06C155.39 8.22 155.37 8.38 155.33 8.55C155.32 8.62 155.27 8.89 155.19 9.35L155.14 9.54L155.06 9.83C154.82 10.03 154.48 10.17 154.04 10.27C153.61 10.37 153.07 10.42 152.44 10.42C151.95 10.42 151.5 10.37 151.06 10.27C150.63 10.18 150.26 10.03 149.96 9.82C149.51 9.52 149.15 9.19 148.9 8.84C148.64 8.49 148.45 8.11 148.32 7.7C148.2 7.28 148.14 6.82 148.14 6.31Q148.14 5.03 148.69 4.05Q148.94 3.61 149.3 3.23C150.08 2.42 151.07 2.02 152.27 2.02C152.76 2.02 153.22 2.04 153.64 2.1Q154.3 2.17 154.86 2.33ZM187.02 2.33C187.07 2.45 187.17 2.81 187.33 3.4C187.4 3.67 187.44 3.95 187.44 4.25L186.9 4.25Q186.34 3.4 185.73 3.03C185.33 2.78 184.88 2.65 184.39 2.65C183.78 2.65 183.28 2.91 182.91 3.41Q182.15 4.44 182.15 6.27C182.15 6.98 182.19 7.48 182.28 7.78C182.42 8.27 182.6 8.67 182.81 8.98C182.98 9.21 183.2 9.4 183.46 9.54C183.81 9.72 184.18 9.82 184.58 9.82C185.01 9.82 185.43 9.68 185.83 9.39C186.23 9.1 186.62 8.68 186.99 8.11C187.14 8.08 187.33 8.06 187.57 8.06C187.55 8.22 187.53 8.38 187.49 8.55C187.48 8.62 187.43 8.89 187.35 9.35L187.3 9.54L187.22 9.83C186.98 10.03 186.64 10.17 186.2 10.27C185.77 10.37 185.23 10.42 184.6 10.42C184.11 10.42 183.65 10.37 183.22 10.27C182.79 10.18 182.42 10.03 182.12 9.82C181.67 9.52 181.31 9.19 181.06 8.84C180.8 8.49 180.61 8.11 180.48 7.7C180.36 7.28 180.3 6.82 180.3 6.31C180.3 5.06 180.69 4.04 181.46 3.23C182.24 2.42 183.23 2.02 184.43 2.02C184.92 2.02 185.38 2.04 185.8 2.1C186.24 2.15 186.64 2.22 187.02 2.33ZM41.67 5.53C42.02 5.65 42.33 5.85 42.6 6.15Q43 6.58 43.58 7.65C44.02 8.49 44.36 9.03 44.59 9.27C44.82 9.5 45.13 9.68 45.52 9.79C45.66 9.83 45.75 9.87 45.79 9.89C45.8 9.97 45.8 10.03 45.8 10.07Q45.8 10.14 45.78 10.3L45.13 10.29L44.24 10.26C44.01 10.26 43.72 10.28 43.35 10.31C43.1 9.74 42.73 9.01 42.22 8.12C41.72 7.23 41.35 6.7 41.11 6.53C40.87 6.36 40.63 6.28 40.38 6.28C40.37 6.43 40.36 6.57 40.36 6.7L40.39 7.56C40.4 7.73 40.4 7.9 40.4 8.06L40.39 8.81L40.4 9.03L40.41 9.46C40.49 9.56 40.69 9.65 41 9.74C41.18 9.79 41.33 9.85 41.45 9.94C41.47 10.02 41.47 10.08 41.47 10.12C41.47 10.16 41.47 10.21 41.46 10.28C41.28 10.29 41.14 10.29 41.03 10.29C40.74 10.29 40.42 10.28 40.07 10.26L39.67 10.23L39.14 10.25L38.1 10.24L37.53 10.26L37.53 9.91C37.56 9.88 37.75 9.8 38.08 9.67L38.24 9.6C38.41 9.52 38.53 9.47 38.59 9.45C38.66 9.4 38.72 9.33 38.74 9.24C38.76 9.15 38.78 8.83 38.78 8.27L38.76 7.67L38.76 6.34L38.76 5.4L38.77 5.13L38.76 4.32L38.78 4C38.78 3.52 38.75 3.19 38.69 3.02C38.56 2.91 38.33 2.81 37.98 2.72C37.77 2.66 37.63 2.61 37.55 2.55L37.59 2.16Q37.71 2.14 37.83 2.14C38.12 2.14 38.4 2.16 38.69 2.2C38.97 2.24 39.34 2.26 39.79 2.26L40.05 2.25L40.76 2.22C40.86 2.22 41.01 2.21 41.19 2.19L41.4 2.17L41.55 2.18C41.56 2.21 41.57 2.26 41.57 2.32C41.57 2.46 41.56 2.55 41.55 2.59C41.31 2.69 41.06 2.76 40.8 2.8C40.61 2.84 40.48 2.88 40.44 2.91C40.39 2.94 40.37 3.02 40.37 3.14Q40.37 3.76 40.38 3.96L40.39 4.49L40.38 4.89L40.38 5.37L40.37 5.91C40.6 5.83 40.83 5.71 41.05 5.54C41.27 5.37 41.55 4.99 41.88 4.4C42.46 3.38 42.94 2.73 43.33 2.45Q43.92 2.03 44.52 2.03C44.91 2.03 45.21 2.14 45.41 2.35Q45.58 2.52 45.65 2.71Q45.73 2.89 45.73 3.1C45.73 3.32 45.66 3.51 45.53 3.68C45.41 3.85 45.23 3.93 45.01 3.93C44.83 3.93 44.69 3.89 44.59 3.82C44.49 3.74 44.37 3.59 44.23 3.37C44.08 3.14 43.94 3.03 43.8 3.03C43.47 3.03 43.04 3.5 42.52 4.46C42.21 5.01 41.93 5.37 41.67 5.53ZM46.3 6.15C46.3 5.63 46.4 5.11 46.58 4.59C46.72 4.21 46.92 3.87 47.16 3.55C47.41 3.24 47.72 2.96 48.1 2.72C48.47 2.48 48.85 2.3 49.24 2.2Q49.83 2.03 50.55 2.03C51.37 2.03 52.08 2.2 52.69 2.52C53.29 2.85 53.76 3.29 54.11 3.84Q54.6 4.63 54.73 5.48Q54.78 5.79 54.78 6.11Q54.78 7.13 54.41 7.98Q54.13 8.61 53.64 9.15Q53.37 9.46 53.04 9.69Q52.01 10.41 50.48 10.41C50.15 10.41 49.83 10.39 49.54 10.34C49.32 10.31 49.13 10.26 48.96 10.21C48.66 10.1 48.49 10.04 48.46 10.02C48.03 9.77 47.68 9.5 47.42 9.23Q47.38 9.18 47.34 9.14L47.34 9.14Q47 8.76 46.76 8.31C46.66 8.12 46.55 7.77 46.42 7.27C46.34 6.95 46.3 6.57 46.3 6.15ZM111.67 6.15C111.67 5.63 111.77 5.11 111.96 4.59C112.09 4.21 112.29 3.87 112.54 3.55Q112.91 3.09 113.47 2.72C113.84 2.48 114.23 2.3 114.62 2.2C115.01 2.09 115.44 2.03 115.92 2.03Q117.15 2.03 118.06 2.52C118.66 2.85 119.14 3.29 119.48 3.84C119.93 4.56 120.16 5.32 120.16 6.11Q120.16 7.13 119.78 7.98Q119.5 8.61 119.01 9.15C118.26 9.99 117.2 10.41 115.85 10.41C115.52 10.41 115.2 10.39 114.91 10.34C114.69 10.31 114.5 10.26 114.33 10.21C114.03 10.1 113.87 10.04 113.83 10.02C113.4 9.77 113.06 9.5 112.8 9.23C112.54 8.96 112.31 8.65 112.13 8.31C112.04 8.12 111.92 7.77 111.8 7.27C111.71 6.95 111.67 6.57 111.67 6.15ZM143.5 5.53C143.85 5.65 144.16 5.85 144.42 6.15C144.69 6.44 145.02 6.94 145.4 7.65C145.85 8.49 146.19 9.03 146.42 9.27C146.65 9.5 146.96 9.68 147.34 9.79C147.49 9.83 147.58 9.87 147.62 9.89C147.62 9.97 147.63 10.03 147.63 10.07C147.63 10.12 147.62 10.2 147.6 10.3L146.95 10.29L146.06 10.26C145.84 10.26 145.54 10.28 145.17 10.31C144.92 9.74 144.55 9.01 144.04 8.12C143.54 7.23 143.17 6.7 142.93 6.53C142.7 6.36 142.45 6.28 142.21 6.28C142.19 6.43 142.18 6.57 142.18 6.7L142.21 7.56C142.22 7.73 142.22 7.9 142.22 8.06L142.21 8.81L142.22 9.03L142.24 9.46C142.31 9.56 142.51 9.65 142.83 9.74C143 9.79 143.15 9.85 143.28 9.94C143.29 10.02 143.29 10.08 143.29 10.12C143.29 10.16 143.29 10.21 143.28 10.28C143.1 10.29 142.96 10.29 142.85 10.29C142.56 10.29 142.24 10.28 141.89 10.26L141.5 10.23L140.96 10.25L139.92 10.24L139.36 10.26L139.35 9.91C139.39 9.88 139.57 9.8 139.91 9.67L140.06 9.6C140.23 9.52 140.35 9.47 140.41 9.45C140.49 9.4 140.54 9.33 140.56 9.24Q140.6 9.1 140.6 8.27L140.58 7.67L140.59 6.34L140.58 5.4L140.59 5.13L140.58 4.32L140.6 4C140.6 3.52 140.57 3.19 140.51 3.02C140.39 2.91 140.15 2.81 139.8 2.72C139.59 2.66 139.45 2.61 139.37 2.55L139.42 2.16C139.49 2.15 139.57 2.14 139.65 2.14C139.94 2.14 140.23 2.16 140.51 2.2C140.8 2.24 141.17 2.26 141.62 2.26L141.87 2.25L142.58 2.22C142.69 2.22 142.83 2.21 143.02 2.19L143.22 2.17L143.37 2.18C143.38 2.21 143.39 2.26 143.39 2.32C143.39 2.46 143.38 2.55 143.37 2.59C143.13 2.69 142.88 2.76 142.63 2.8C142.43 2.84 142.31 2.88 142.26 2.91C142.21 2.94 142.19 3.02 142.19 3.14C142.19 3.55 142.19 3.83 142.2 3.96L142.21 4.49L142.2 4.89L142.2 5.37L142.19 5.91C142.43 5.83 142.65 5.71 142.87 5.54C143.1 5.37 143.37 4.99 143.71 4.4C144.28 3.38 144.77 2.73 145.16 2.45C145.55 2.17 145.94 2.03 146.34 2.03Q146.88 2.03 147.19 2.3Q147.21 2.33 147.24 2.35C147.45 2.56 147.55 2.81 147.55 3.1C147.55 3.32 147.49 3.51 147.36 3.68C147.23 3.85 147.05 3.93 146.83 3.93C146.66 3.93 146.52 3.89 146.42 3.82C146.32 3.74 146.19 3.59 146.05 3.37C145.91 3.14 145.77 3.03 145.62 3.03Q145.13 3.03 144.34 4.46Q143.88 5.28 143.5 5.53ZM160.26 5.53C160.61 5.65 160.92 5.85 161.19 6.15C161.46 6.44 161.78 6.94 162.16 7.65C162.61 8.49 162.95 9.03 163.18 9.27C163.41 9.5 163.72 9.68 164.11 9.79C164.25 9.83 164.34 9.87 164.38 9.89C164.39 9.97 164.39 10.03 164.39 10.07C164.39 10.12 164.38 10.2 164.37 10.3L163.72 10.29L162.83 10.26C162.6 10.26 162.31 10.28 161.94 10.31Q161.57 9.45 160.81 8.12Q160.05 6.78 159.7 6.53C159.46 6.36 159.22 6.28 158.97 6.28C158.96 6.43 158.95 6.57 158.95 6.7L158.98 7.56C158.99 7.73 158.99 7.9 158.99 8.06L158.98 8.81L158.99 9.03L159 9.46C159.08 9.56 159.28 9.65 159.59 9.74C159.77 9.79 159.92 9.85 160.04 9.94C160.05 10.02 160.06 10.08 160.06 10.12C160.06 10.16 160.06 10.21 160.05 10.28C159.87 10.29 159.73 10.29 159.62 10.29C159.32 10.29 159 10.28 158.66 10.26L158.26 10.23L157.73 10.25L156.68 10.24L156.12 10.26L156.12 9.91C156.15 9.88 156.34 9.8 156.67 9.67L156.83 9.6C157 9.52 157.12 9.47 157.17 9.45C157.25 9.4 157.3 9.33 157.33 9.24C157.35 9.15 157.36 8.83 157.36 8.27L157.35 7.67L157.35 6.34L157.35 5.4L157.36 5.13L157.35 4.32L157.36 4C157.36 3.52 157.33 3.19 157.28 3.02Q157.09 2.85 156.57 2.72C156.36 2.66 156.21 2.61 156.14 2.55L156.18 2.16C156.26 2.15 156.34 2.14 156.42 2.14C156.71 2.14 156.99 2.16 157.28 2.2C157.56 2.24 157.93 2.26 158.38 2.26L158.63 2.25L159.34 2.22C159.45 2.22 159.6 2.21 159.78 2.19L159.99 2.17L160.14 2.18C160.15 2.21 160.15 2.26 160.15 2.32C160.15 2.46 160.15 2.55 160.14 2.59C159.89 2.69 159.65 2.76 159.39 2.8C159.19 2.84 159.07 2.88 159.03 2.91C158.98 2.94 158.95 3.02 158.95 3.14Q158.95 3.76 158.97 3.96L158.98 4.49L158.97 4.89L158.97 5.37L158.96 5.91C159.19 5.83 159.42 5.71 159.64 5.54Q159.97 5.29 160.47 4.4Q161.34 2.87 161.92 2.45C162.32 2.17 162.71 2.03 163.1 2.03C163.5 2.03 163.8 2.14 164 2.35C164.05 2.4 164.1 2.45 164.13 2.51C164.13 2.48 164.14 2.46 164.14 2.42C164.14 2.38 164.15 2.32 164.15 2.24C164.21 2.22 164.33 2.2 164.5 2.2L164.89 2.19C164.91 2.2 164.92 2.2 164.95 2.2C165.05 2.22 165.12 2.23 165.16 2.23C165.16 2.23 165.18 2.23 165.21 2.22C165.62 2.29 166.17 2.32 166.86 2.32C167.18 2.32 167.49 2.3 167.79 2.25C167.84 2.25 167.87 2.24 167.89 2.24C167.9 2.24 167.91 2.24 167.93 2.25C167.95 2.3 167.96 2.34 167.96 2.37C167.96 2.38 167.96 2.41 167.96 2.45C167.95 2.48 167.95 2.5 167.95 2.52L167.96 2.7C167.88 2.73 167.77 2.76 167.63 2.79L167.37 2.84C167.24 2.86 167.11 2.88 166.97 2.9C166.94 2.91 166.92 2.94 166.92 3.01Q167.01 3.22 167.28 3.65L167.44 3.92L167.75 4.39L168.58 5.74L169.19 6.91L170.75 3.4C170.87 3.14 170.93 2.98 170.93 2.94C170.93 2.83 170.8 2.77 170.54 2.77L170.32 2.72C170.23 2.71 170.16 2.69 170.13 2.69C170.13 2.66 170.11 2.5 170.1 2.22C170.16 2.22 170.33 2.23 170.61 2.26L171.31 2.29L171.46 2.32L171.74 2.32L171.84 2.31C171.92 2.3 172.01 2.29 172.08 2.28L172.28 2.27L172.33 2.26C172.39 2.26 172.45 2.25 172.5 2.24L172.5 2.71L172.42 2.74C172.09 2.78 171.86 2.85 171.72 2.95C171.58 3.04 171.42 3.3 171.24 3.71L169.15 8.44C168.55 9.79 167.75 10.47 166.73 10.47C166.33 10.47 166.01 10.37 165.77 10.16C165.53 9.95 165.41 9.7 165.41 9.41C165.41 9.19 165.48 8.99 165.62 8.83C165.76 8.66 165.95 8.58 166.19 8.58C166.31 8.58 166.43 8.61 166.54 8.66C166.66 8.71 166.81 8.87 166.98 9.14Q167.19 9.47 167.4 9.47L167.41 9.47C167.78 9.47 168.12 9.17 168.42 8.56C168.38 8.33 168.01 7.69 167.31 6.65C167.08 6.32 166.87 6 166.68 5.68Q166.16 4.81 165.65 4.04L165.49 3.77C165.32 3.47 165.12 3.18 164.91 2.89C164.82 2.8 164.67 2.73 164.45 2.69L164.36 2.67C164.3 2.65 164.24 2.63 164.2 2.63C164.28 2.77 164.32 2.93 164.32 3.1C164.32 3.32 164.25 3.51 164.12 3.68C163.99 3.85 163.82 3.93 163.59 3.93C163.42 3.93 163.28 3.89 163.18 3.82C163.08 3.74 162.96 3.59 162.81 3.37C162.67 3.14 162.53 3.03 162.39 3.03Q161.89 3.03 161.11 4.46C160.8 5.01 160.52 5.37 160.26 5.53ZM198.96 6.15Q198.96 5.37 199.25 4.59C199.39 4.21 199.58 3.87 199.83 3.55C200.08 3.24 200.39 2.96 200.76 2.72C201.14 2.48 201.52 2.3 201.91 2.2C202.3 2.09 202.73 2.03 203.21 2.03C204.03 2.03 204.75 2.2 205.35 2.52Q205.96 2.85 206.39 3.34L206.4 3.34Q206.6 3.57 206.77 3.84C207.22 4.56 207.45 5.32 207.45 6.11C207.45 7.29 207.07 8.31 206.31 9.15C205.55 9.99 204.5 10.41 203.14 10.41C202.81 10.41 202.5 10.39 202.2 10.34C201.98 10.31 201.79 10.26 201.62 10.21C201.33 10.1 201.16 10.04 201.12 10.02C200.69 9.77 200.35 9.5 200.09 9.23C199.83 8.96 199.61 8.65 199.43 8.31C199.33 8.12 199.21 7.77 199.09 7.27C199.01 6.95 198.96 6.57 198.96 6.15ZM271.09 6.15C271.09 5.63 271.18 5.11 271.37 4.59C271.51 4.21 271.7 3.87 271.95 3.55C272.2 3.24 272.51 2.96 272.88 2.72C273.26 2.48 273.64 2.3 274.03 2.2C274.42 2.09 274.86 2.03 275.34 2.03C276.16 2.03 276.87 2.2 277.47 2.52C278.07 2.85 278.55 3.29 278.9 3.84Q279.39 4.63 279.52 5.48Q279.57 5.79 279.57 6.11Q279.57 7.13 279.19 7.98Q278.91 8.61 278.43 9.15C277.67 9.99 276.62 10.41 275.27 10.41C274.93 10.41 274.62 10.39 274.33 10.34C274.1 10.31 273.91 10.26 273.75 10.21C273.45 10.1 273.28 10.04 273.24 10.02C272.81 9.77 272.47 9.5 272.21 9.23C271.95 8.96 271.73 8.65 271.55 8.31C271.45 8.12 271.34 7.77 271.21 7.27Q271.09 6.79 271.09 6.15ZM7.28 10.3L7.3 9.87C7.37 9.85 7.5 9.82 7.69 9.78C8 9.72 8.18 9.66 8.24 9.61C8.31 9.56 8.39 9.44 8.48 9.25L9.68 5.94L11.08 2.05Q11.27 2.05 11.45 2.05L11.72 2.05L11.77 2.17L12.8 4.74C13.03 5.29 13.24 5.82 13.43 6.34C13.61 6.85 13.77 7.27 13.9 7.6C13.98 7.79 14.09 8.09 14.23 8.48C14.3 8.69 14.41 8.96 14.56 9.28C14.63 9.45 14.69 9.56 14.73 9.59C14.8 9.65 14.92 9.69 15.08 9.71C15.24 9.73 15.41 9.78 15.6 9.86C15.62 9.99 15.63 10.1 15.63 10.16C15.63 10.19 15.62 10.24 15.62 10.3C15.33 10.3 15.01 10.28 14.66 10.26C14.3 10.23 13.99 10.21 13.71 10.21C13.4 10.21 13.17 10.22 13.04 10.22L12.03 10.28L11.74 10.29C11.74 10.15 11.75 10.01 11.76 9.87L12.42 9.72C12.61 9.67 12.73 9.63 12.76 9.6C12.8 9.56 12.82 9.51 12.82 9.45C12.82 9.4 12.81 9.34 12.79 9.29L12.55 8.67L12.08 7.45L9.83 7.44C9.74 7.64 9.57 8.13 9.31 8.91C9.24 9.13 9.2 9.28 9.2 9.36C9.2 9.47 9.23 9.55 9.28 9.59C9.37 9.67 9.55 9.73 9.8 9.76C9.84 9.77 9.98 9.79 10.22 9.83C10.23 9.98 10.23 10.08 10.23 10.14C10.23 10.19 10.22 10.24 10.22 10.29Q9.85 10.29 8.47 10.18L8.22 10.22Q7.79 10.3 7.39 10.3L7.28 10.3ZM294.76 10.3L294.77 9.87C294.84 9.85 294.98 9.82 295.16 9.78C295.47 9.72 295.65 9.66 295.71 9.61C295.78 9.56 295.86 9.44 295.96 9.25L297.15 5.94L298.55 2.05Q298.75 2.05 298.92 2.05L299.19 2.05L299.24 2.17L300.27 4.74C300.51 5.29 300.71 5.82 300.9 6.34C301.08 6.85 301.24 7.27 301.38 7.6C301.46 7.79 301.57 8.09 301.7 8.48C301.77 8.69 301.88 8.96 302.03 9.28C302.11 9.45 302.17 9.56 302.21 9.59C302.28 9.65 302.39 9.69 302.55 9.71C302.71 9.73 302.88 9.78 303.07 9.86C303.09 9.99 303.1 10.1 303.1 10.16C303.1 10.19 303.1 10.24 303.09 10.3C302.8 10.3 302.48 10.28 302.13 10.26C301.78 10.23 301.46 10.21 301.18 10.21C300.87 10.21 300.65 10.22 300.51 10.22L299.5 10.28L299.21 10.29C299.21 10.15 299.22 10.01 299.23 9.87L299.89 9.72C300.09 9.67 300.2 9.63 300.23 9.6C300.27 9.56 300.29 9.51 300.29 9.45C300.29 9.4 300.28 9.34 300.26 9.29L300.02 8.67L299.56 7.45L297.3 7.44C297.22 7.64 297.04 8.13 296.78 8.91C296.71 9.13 296.67 9.28 296.67 9.36C296.67 9.47 296.7 9.55 296.76 9.59C296.85 9.67 297.02 9.73 297.28 9.76C297.31 9.77 297.45 9.79 297.7 9.83C297.7 9.98 297.7 10.08 297.7 10.14C297.7 10.19 297.7 10.24 297.69 10.29Q297.32 10.29 295.94 10.18L295.7 10.22C295.41 10.27 295.13 10.3 294.86 10.3L294.76 10.3ZM253.01 10.27C253.01 10.15 253.02 10 253.04 9.83C253.08 9.82 253.16 9.81 253.29 9.79L253.55 9.74C253.8 9.7 253.98 9.65 254.11 9.59L254.19 8.03L254.16 6.76L254.17 6.37L254.19 4.62L254.18 4.07L254.18 3.81C254.18 3.31 254.15 2.98 254.08 2.8C254.06 2.79 254.02 2.78 253.97 2.78C253.94 2.77 253.9 2.77 253.86 2.76C253.68 2.73 253.52 2.71 253.37 2.7L253.28 2.67C253.17 2.66 253.09 2.64 253.04 2.62C253.03 2.5 253.02 2.42 253.02 2.39C253.02 2.34 253.03 2.27 253.06 2.18Q253.19 2.15 253.33 2.15C253.57 2.15 253.81 2.16 254.07 2.18C254.78 2.24 255.56 2.27 256.4 2.27L258.3 2.23L259.7 2.25C260.75 2.25 261.49 2.22 261.92 2.17C262.09 2.15 262.21 2.13 262.27 2.13C262.35 2.13 262.47 2.14 262.64 2.16C262.63 2.33 262.63 2.47 262.61 2.6C262.08 2.71 261.73 2.82 261.56 2.92C261.53 3.01 261.51 3.24 261.51 3.63L261.51 3.76L261.51 4.07L261.52 5.46L261.51 6.56L261.53 7.38L261.53 8.27L261.54 9.01C261.54 9.16 261.54 9.32 261.53 9.51C261.61 9.54 261.69 9.56 261.76 9.57C262.13 9.66 262.41 9.74 262.6 9.83L262.62 10.27L262.34 10.27C262.29 10.27 262.22 10.27 262.13 10.26L261.69 10.24Q261.2 10.18 260.14 10.18C259.91 10.18 259.69 10.19 259.49 10.21L258.87 10.26C258.81 10.26 258.75 10.25 258.67 10.22C258.68 10.02 258.69 9.89 258.7 9.82L259.1 9.72L259.33 9.67C259.58 9.63 259.74 9.6 259.82 9.57C259.87 9.36 259.9 8.07 259.9 5.68L259.86 2.97C259.73 2.95 259.58 2.95 259.39 2.94L256.64 2.91L256.59 2.9Q256.57 2.9 256.55 2.9C256.52 2.9 256.49 2.9 256.46 2.9L256.2 2.91C255.98 2.91 255.84 2.93 255.78 2.95Q255.75 3.61 255.75 4.09L255.76 7.32L255.76 9.12C255.76 9.35 255.77 9.51 255.78 9.59C255.81 9.62 255.87 9.64 255.99 9.65L256.26 9.69C256.37 9.71 256.48 9.73 256.59 9.75L256.81 9.8C256.86 9.81 256.9 9.83 256.94 9.86Q256.96 10 256.96 10.05C256.96 10.1 256.95 10.18 256.93 10.27L256.57 10.28Q256.34 10.28 255.93 10.24L255.49 10.24L255.19 10.21L254.57 10.2C254.41 10.2 254.23 10.21 254.03 10.24L253.64 10.27L253.01 10.27ZM18.52 8.03Q21.66 4.67 22.63 3.5C22.63 3.19 22.62 3.01 22.6 2.97C22.58 2.92 22.52 2.86 22.41 2.81C22.3 2.75 22.08 2.68 21.76 2.6C21.61 2.57 21.51 2.54 21.46 2.52C21.47 2.36 21.48 2.24 21.51 2.16L21.67 2.15C22 2.15 22.22 2.16 22.33 2.17C22.65 2.21 22.96 2.23 23.27 2.23C23.77 2.23 24.23 2.21 24.65 2.17C24.81 2.15 24.93 2.14 25.02 2.14C25.11 2.14 25.23 2.15 25.39 2.16C25.39 2.33 25.38 2.47 25.36 2.6C24.91 2.7 24.62 2.79 24.48 2.85C24.34 2.91 24.27 3.01 24.27 3.17L24.27 4.07L24.27 5.46L24.26 6.26L24.28 7.38L24.28 8.27L24.29 9.01C24.29 9.16 24.29 9.32 24.28 9.51C24.36 9.54 24.44 9.56 24.51 9.57C24.88 9.66 25.16 9.74 25.35 9.83L25.37 10.27L25.11 10.27C25.05 10.27 24.97 10.27 24.88 10.26L24.44 10.24C24.12 10.2 23.6 10.18 22.89 10.18C22.53 10.18 22.25 10.19 22.06 10.22C21.81 10.25 21.66 10.26 21.61 10.26C21.56 10.26 21.5 10.25 21.42 10.22C21.43 10.02 21.44 9.89 21.45 9.82L21.86 9.72L22.09 9.67C22.33 9.63 22.5 9.6 22.57 9.57C22.62 9.26 22.65 8.52 22.65 7.35L22.64 5.51L22.65 4.34L18.52 8.85C18.52 9.32 18.53 9.57 18.53 9.59C18.56 9.62 18.63 9.64 18.74 9.65L19.12 9.71C19.46 9.78 19.65 9.83 19.69 9.86C19.7 9.95 19.71 10.02 19.71 10.05C19.71 10.1 19.7 10.18 19.69 10.27L19.32 10.28C19.17 10.28 18.96 10.27 18.69 10.24L18.24 10.24L17.94 10.22L17.4 10.2C17.23 10.2 17.02 10.21 16.77 10.24C16.52 10.26 16.18 10.27 15.76 10.27C15.76 10.15 15.77 10 15.8 9.83C15.83 9.82 15.91 9.81 16.04 9.79L16.3 9.74C16.55 9.7 16.73 9.65 16.86 9.59Q16.92 8.41 16.92 7.53L16.92 6.7L16.94 4.58C16.94 3.94 16.92 3.39 16.87 2.94C16.87 2.91 16.85 2.87 16.83 2.8C16.81 2.79 16.77 2.78 16.72 2.78C16.69 2.77 16.65 2.77 16.61 2.76C16.43 2.73 16.27 2.71 16.12 2.7L16.03 2.67C15.92 2.66 15.84 2.64 15.79 2.62C15.78 2.5 15.77 2.42 15.77 2.39C15.77 2.34 15.78 2.27 15.81 2.18C15.9 2.16 15.99 2.15 16.09 2.15C16.37 2.15 16.71 2.17 17.09 2.21C17.44 2.24 17.73 2.26 17.95 2.26C18.27 2.26 18.57 2.25 18.84 2.22Q19.33 2.16 19.42 2.16C19.5 2.16 19.59 2.17 19.7 2.19L19.71 2.38C19.71 2.45 19.7 2.53 19.69 2.62L18.65 2.8C18.59 2.81 18.55 2.9 18.54 3.09C18.53 3.28 18.52 3.5 18.52 3.76L18.53 4.06L18.52 4.62L18.53 4.94L18.51 5.37C18.51 5.42 18.51 5.52 18.52 5.66C18.53 5.85 18.53 6.04 18.53 6.22C18.53 6.37 18.53 6.52 18.52 6.67L18.5 7L18.52 8.03ZM55.74 10.27C55.74 10.15 55.75 10 55.77 9.83L56.51 9.69C56.6 9.67 56.71 9.64 56.84 9.59L56.91 8.03C56.9 7.47 56.89 7.04 56.89 6.76L56.89 6.61C56.91 6.44 56.91 6.01 56.91 5.33L56.9 5.14L56.91 4.62L56.91 4.07L56.91 3.81Q56.91 3.44 56.85 2.95C56.85 2.93 56.83 2.88 56.81 2.8C56.77 2.79 56.74 2.78 56.7 2.78C56.66 2.77 56.63 2.77 56.59 2.76C56.43 2.73 56.27 2.71 56.1 2.7L56.01 2.67C55.9 2.66 55.82 2.64 55.77 2.62C55.75 2.5 55.75 2.42 55.75 2.39C55.75 2.34 55.76 2.27 55.78 2.18Q55.9 2.16 56.11 2.16C56.26 2.16 56.35 2.16 56.41 2.15C56.89 2.21 57.25 2.24 57.48 2.24C57.59 2.24 57.69 2.25 57.8 2.25Q57.96 2.26 58.09 2.26C58.22 2.26 58.54 2.24 59.04 2.2Q59.16 2.17 59.31 2.17C59.46 2.17 59.58 2.17 59.68 2.19C59.68 2.28 59.68 2.34 59.68 2.38C59.68 2.45 59.68 2.53 59.66 2.62L58.62 2.8C58.53 2.84 58.49 2.9 58.49 2.98L58.51 3.21L58.51 3.31L58.51 3.59L58.5 3.8L58.5 3.85C58.5 3.89 58.5 3.93 58.5 3.97L58.5 4.76C58.5 4.84 58.5 4.89 58.5 4.93C58.5 4.95 58.5 5.02 58.49 5.13C58.49 5.2 58.48 5.27 58.48 5.34C58.48 5.4 58.49 5.55 58.5 5.78C58.61 5.8 58.71 5.82 58.78 5.82L59.66 5.84L60.08 5.84L61.14 5.84L62.18 5.81C62.31 5.81 62.46 5.8 62.61 5.77C62.61 5.63 62.62 5.28 62.62 4.72L62.63 4.44L62.6 3.38L62.56 2.94C62.55 2.91 62.52 2.89 62.48 2.86C62.34 2.78 62.06 2.68 61.65 2.58C61.57 2.56 61.5 2.54 61.43 2.52C61.44 2.37 61.46 2.25 61.48 2.16Q61.61 2.15 61.64 2.15L62.22 2.16C62.58 2.21 62.95 2.23 63.33 2.23C63.42 2.23 63.49 2.23 63.54 2.23L64.31 2.2C64.38 2.2 64.45 2.2 64.51 2.19C64.66 2.16 64.8 2.14 64.95 2.14C65.07 2.14 65.2 2.15 65.37 2.16C65.36 2.32 65.35 2.47 65.34 2.6C64.97 2.68 64.74 2.74 64.62 2.78C64.51 2.81 64.4 2.86 64.28 2.92L64.25 3.05L64.25 3.15L64.25 3.32L64.25 3.4C64.24 3.49 64.24 3.55 64.24 3.6L64.24 3.76C64.24 3.94 64.24 4.05 64.24 4.07L64.24 4.86L64.25 5.46L64.24 6.26C64.24 6.29 64.24 6.34 64.24 6.39C64.24 6.6 64.24 6.93 64.25 7.38L64.25 8.27L64.27 9.01C64.27 9.15 64.26 9.32 64.25 9.51Q64.38 9.55 64.49 9.57C64.86 9.66 65.14 9.74 65.32 9.83L65.34 10.27C65.18 10.27 65.09 10.27 65.06 10.27C64.88 10.27 64.66 10.26 64.41 10.24C64.09 10.2 63.57 10.18 62.85 10.18C62.53 10.18 62.11 10.21 61.6 10.26C61.55 10.26 61.48 10.25 61.4 10.22C61.4 10.03 61.41 9.9 61.43 9.82L61.88 9.71L62.36 9.62C62.41 9.61 62.47 9.59 62.55 9.57C62.59 9.23 62.61 8.67 62.62 7.88L62.62 7.35C62.6 7.13 62.59 6.87 62.59 6.56C62.44 6.55 62.28 6.54 62.11 6.53L59.37 6.5L59.32 6.5L59.28 6.49Q59.24 6.49 59.18 6.5C59.08 6.5 58.99 6.5 58.92 6.5L58.76 6.5C58.68 6.5 58.6 6.52 58.5 6.55L58.48 7.01L58.48 7.1C58.49 7.21 58.49 7.28 58.49 7.32L58.49 9.25Q58.49 9.42 58.51 9.59L58.57 9.62L59.44 9.77C59.48 9.78 59.51 9.79 59.54 9.8C59.59 9.81 59.63 9.83 59.67 9.86Q59.68 10 59.68 10.05C59.68 10.1 59.68 10.18 59.66 10.27Q59.45 10.28 59.3 10.28C59.21 10.28 59.13 10.28 59.06 10.27Q59.01 10.27 58.96 10.27L58.12 10.23C57.93 10.21 57.65 10.2 57.3 10.2L57.17 10.21C57.01 10.21 56.91 10.22 56.88 10.22C56.64 10.26 56.26 10.27 55.74 10.27ZM67.32 2.91C67.24 2.88 67.16 2.86 67.09 2.85C66.72 2.76 66.44 2.68 66.25 2.59L66.24 2.15L66.52 2.15L66.73 2.15L67.16 2.18C67.49 2.22 68 2.24 68.71 2.24C68.94 2.24 69.16 2.23 69.36 2.22L69.98 2.16C70.04 2.16 70.1 2.17 70.18 2.19C70.18 2.39 70.17 2.53 70.15 2.6L69.75 2.7L69.52 2.74C69.27 2.78 69.11 2.82 69.03 2.85C68.98 3.06 68.95 4.35 68.95 6.74L68.99 9.45C69.12 9.47 69.27 9.47 69.46 9.47L72.21 9.51L72.39 9.52C72.79 9.52 73.02 9.5 73.08 9.47L73.1 8.32L73.09 5.11L73.09 3.3C73.09 3.06 73.08 2.91 73.07 2.83C73.05 2.8 72.98 2.79 72.86 2.77L72.6 2.73C72.48 2.71 72.37 2.69 72.26 2.67L72.05 2.62C71.99 2.61 71.95 2.59 71.92 2.57C71.9 2.47 71.89 2.41 71.89 2.37Q71.89 2.28 71.92 2.15L72.28 2.14C72.43 2.14 72.65 2.15 72.92 2.17L74.29 2.22C74.44 2.22 74.62 2.21 74.83 2.17L75.21 2.15L75.84 2.14C75.84 2.27 75.83 2.42 75.81 2.59L75.31 2.68C75.06 2.72 74.87 2.77 74.75 2.82L74.66 4.39L74.69 5.66L74.68 6.05L74.66 7.8L74.68 8.34L74.68 8.61C74.68 9.07 74.72 9.38 74.8 9.52C74.88 9.66 75.05 9.77 75.3 9.84C75.45 9.89 75.55 9.96 75.59 10.05C75.63 10.13 75.65 10.39 75.66 10.83L75.7 11.46C75.71 11.62 75.72 11.79 75.72 11.96C75.64 11.98 75.53 11.99 75.39 12C75.32 11.86 75.24 11.71 75.17 11.54C74.99 11.11 74.83 10.82 74.69 10.67C74.56 10.54 74.4 10.44 74.2 10.39C74.01 10.34 73.39 10.29 72.33 10.24C71.27 10.2 70.21 10.17 69.15 10.17C68.1 10.17 67.36 10.2 66.93 10.25C66.76 10.27 66.64 10.28 66.58 10.28C66.5 10.28 66.38 10.27 66.21 10.26C66.22 10.09 66.23 9.94 66.24 9.81C66.77 9.7 67.12 9.6 67.29 9.5C67.33 9.42 67.35 9.18 67.35 8.79C67.35 8.76 67.34 8.72 67.34 8.67L67.33 8.35L67.33 6.96L67.33 5.85L67.32 5.03L67.33 4.14L67.31 3.41C67.31 3.27 67.31 3.1 67.32 2.91ZM85.18 2.62L85.18 2.14L86.59 2.23L87.22 2.23L87.45 2.23C87.69 2.23 88.07 2.21 88.58 2.18C88.87 2.16 89.06 2.15 89.13 2.15C89.63 2.15 90 2.18 90.25 2.24Q90.83 2.37 91.17 2.64C91.4 2.83 91.59 3.09 91.76 3.43Q92 3.94 92 4.37C92 5.1 91.79 5.69 91.35 6.15C90.92 6.6 90.38 6.82 89.72 6.82C89.49 6.82 89.27 6.79 89.07 6.73C88.86 6.67 88.67 6.59 88.49 6.47Q88.46 6.29 88.46 5.97C88.55 5.98 88.64 5.98 88.71 5.99C88.79 5.99 88.86 6 88.92 6C89.25 6 89.53 5.9 89.76 5.7C90.07 5.45 90.22 5.03 90.22 4.46Q90.22 3.85 90.02 3.46C89.89 3.2 89.73 3.02 89.55 2.93C89.3 2.8 89.01 2.74 88.7 2.74C88.4 2.74 88.19 2.79 88.07 2.88C88.04 2.93 88.01 2.99 88 3.04L88.04 5.98L88.03 6.23L88.04 6.5C88.05 6.55 88.05 6.64 88.05 6.75L88.05 7.27L88.05 8.08L88.04 9.06C88.04 9.2 88.05 9.38 88.08 9.62L89.26 9.77C89.27 9.87 89.28 9.95 89.28 10.01C89.28 10.07 89.27 10.16 89.25 10.27C89.15 10.29 89.08 10.3 89.02 10.3C88.9 10.3 88.67 10.28 88.33 10.26Q87.82 10.21 87.17 10.21C86.69 10.21 86.22 10.24 85.78 10.31C85.7 10.32 85.59 10.33 85.42 10.34C85.41 10.22 85.4 10.13 85.4 10.07C85.4 10.03 85.4 9.97 85.41 9.89L85.77 9.77C86.02 9.69 86.24 9.59 86.42 9.48C86.45 9.36 86.47 9.25 86.47 9.15C86.47 9.11 86.47 9.06 86.46 9C86.46 8.88 86.46 8.69 86.46 8.46L86.44 6.7L86.38 4.72C86.35 3.78 86.33 3.27 86.31 3.19C86.28 3.07 86.24 2.98 86.17 2.91Q86.07 2.8 85.83 2.76C85.51 2.7 85.29 2.65 85.18 2.62ZM101.04 10.27C101.04 10.15 101.06 10 101.08 9.83L101.82 9.69C101.91 9.67 102.02 9.64 102.14 9.59L102.22 8.03Q102.2 7.18 102.2 6.76L102.2 6.61C102.21 6.44 102.22 6.01 102.22 5.33L102.21 5.14L102.22 4.62L102.21 4.07L102.21 3.81C102.21 3.56 102.2 3.28 102.16 2.95C102.16 2.93 102.14 2.88 102.11 2.8C102.08 2.79 102.05 2.78 102.01 2.78C101.97 2.77 101.93 2.77 101.89 2.76C101.74 2.73 101.58 2.71 101.4 2.7L101.32 2.67C101.21 2.66 101.13 2.64 101.07 2.62C101.06 2.5 101.06 2.42 101.06 2.39C101.06 2.34 101.07 2.27 101.09 2.18C101.17 2.17 101.28 2.16 101.42 2.16C101.56 2.16 101.66 2.16 101.72 2.15C102.2 2.21 102.55 2.24 102.79 2.24C102.89 2.24 103 2.25 103.11 2.25Q103.27 2.26 103.4 2.26C103.53 2.26 103.84 2.24 104.35 2.2Q104.47 2.17 104.62 2.17Q104.84 2.17 104.99 2.19C104.99 2.28 104.99 2.34 104.99 2.38Q104.99 2.48 104.97 2.62L103.93 2.8C103.84 2.84 103.8 2.9 103.8 2.98L103.82 3.21L103.82 3.31L103.82 3.59L103.8 3.8L103.8 3.85C103.81 3.89 103.81 3.93 103.81 3.97L103.8 4.76C103.81 4.84 103.81 4.89 103.81 4.93C103.81 4.95 103.81 5.02 103.8 5.13C103.79 5.2 103.79 5.27 103.79 5.34C103.79 5.4 103.8 5.55 103.81 5.78C103.92 5.8 104.01 5.82 104.09 5.82L104.96 5.84L105.39 5.84L106.45 5.84L107.49 5.81C107.62 5.81 107.76 5.8 107.91 5.77C107.92 5.63 107.93 5.28 107.93 4.72L107.94 4.44L107.91 3.38L107.87 2.94C107.85 2.91 107.83 2.89 107.78 2.86C107.64 2.78 107.37 2.68 106.95 2.58C106.88 2.56 106.81 2.54 106.74 2.52C106.75 2.37 106.77 2.25 106.79 2.16C106.88 2.16 106.93 2.15 106.95 2.15L107.52 2.16C107.89 2.21 108.26 2.23 108.64 2.23Q108.77 2.23 108.85 2.23L109.62 2.2C109.69 2.2 109.76 2.2 109.82 2.19Q110.04 2.14 110.26 2.14C110.37 2.14 110.51 2.15 110.67 2.16C110.67 2.32 110.66 2.47 110.64 2.6C110.28 2.68 110.04 2.74 109.93 2.78C109.82 2.81 109.71 2.86 109.59 2.92L109.56 3.05L109.56 3.15L109.56 3.32L109.56 3.4C109.55 3.49 109.54 3.55 109.54 3.6L109.54 3.76C109.55 3.94 109.55 4.05 109.55 4.07L109.55 4.86L109.56 5.46L109.54 6.26C109.54 6.29 109.54 6.34 109.54 6.39C109.54 6.6 109.55 6.93 109.56 7.38L109.56 8.27L109.57 9.01C109.57 9.15 109.57 9.32 109.56 9.51C109.64 9.54 109.72 9.56 109.79 9.57C110.16 9.66 110.44 9.74 110.63 9.83L110.65 10.27C110.49 10.27 110.4 10.27 110.37 10.27C110.18 10.27 109.97 10.26 109.72 10.24C109.4 10.2 108.88 10.18 108.16 10.18C107.84 10.18 107.42 10.21 106.91 10.26C106.85 10.26 106.79 10.25 106.71 10.22C106.71 10.03 106.72 9.9 106.74 9.82L107.19 9.71L107.67 9.62C107.72 9.61 107.78 9.59 107.85 9.57C107.9 9.23 107.92 8.67 107.92 7.88L107.93 7.35C107.91 7.13 107.89 6.87 107.89 6.56C107.75 6.55 107.59 6.54 107.42 6.53L104.68 6.5L104.63 6.5L104.58 6.49C104.56 6.49 104.53 6.49 104.49 6.5C104.39 6.5 104.3 6.5 104.23 6.5L104.06 6.5C103.99 6.5 103.9 6.52 103.81 6.55L103.79 7.01L103.79 7.1C103.79 7.21 103.8 7.28 103.8 7.32L103.8 9.25C103.8 9.36 103.8 9.47 103.82 9.59L103.88 9.62L104.74 9.77C104.79 9.78 104.82 9.79 104.84 9.8C104.9 9.81 104.94 9.83 104.97 9.86C104.99 9.95 104.99 10.02 104.99 10.05C104.99 10.1 104.98 10.18 104.97 10.27C104.83 10.28 104.71 10.28 104.61 10.28C104.52 10.28 104.44 10.28 104.37 10.27C104.33 10.27 104.3 10.27 104.27 10.27L103.43 10.23C103.23 10.21 102.96 10.2 102.6 10.2L102.48 10.21C102.31 10.21 102.22 10.22 102.19 10.22C101.95 10.26 101.56 10.27 101.04 10.27ZM172.59 2.62L172.59 2.14L174 2.23L174.63 2.23L174.86 2.23Q175.22 2.23 175.99 2.18C176.28 2.16 176.47 2.15 176.54 2.15C177.04 2.15 177.41 2.18 177.66 2.24C178.05 2.32 178.36 2.46 178.58 2.64C178.81 2.83 179 3.09 179.17 3.43C179.33 3.77 179.41 4.08 179.41 4.37C179.41 5.1 179.2 5.69 178.76 6.15C178.33 6.6 177.79 6.82 177.13 6.82C176.9 6.82 176.69 6.79 176.48 6.73C176.27 6.67 176.08 6.59 175.9 6.47C175.88 6.35 175.87 6.18 175.87 5.97C175.96 5.98 176.05 5.98 176.12 5.99C176.2 5.99 176.27 6 176.33 6C176.66 6 176.95 5.9 177.17 5.7C177.48 5.45 177.63 5.03 177.63 4.46C177.63 4.05 177.56 3.72 177.43 3.46C177.3 3.2 177.14 3.02 176.96 2.93C176.71 2.8 176.43 2.74 176.11 2.74C175.81 2.74 175.6 2.79 175.48 2.88C175.45 2.93 175.42 2.99 175.41 3.04L175.45 5.98L175.44 6.23L175.45 6.5C175.46 6.55 175.46 6.64 175.46 6.75L175.46 7.27L175.47 8.08L175.45 9.06C175.45 9.2 175.47 9.38 175.49 9.62L176.67 9.77C176.68 9.87 176.69 9.95 176.69 10.01C176.69 10.07 176.68 10.16 176.66 10.27C176.56 10.29 176.49 10.3 176.43 10.3C176.31 10.3 176.08 10.28 175.74 10.26Q175.23 10.21 174.58 10.21C174.1 10.21 173.63 10.24 173.19 10.31C173.11 10.32 173 10.33 172.83 10.34C172.82 10.22 172.81 10.13 172.81 10.07Q172.81 10.01 172.82 9.89L173.18 9.77C173.43 9.69 173.65 9.59 173.83 9.48C173.86 9.36 173.88 9.25 173.88 9.15C173.88 9.11 173.88 9.06 173.88 9C173.87 8.88 173.87 8.69 173.87 8.46L173.85 6.7L173.79 4.72C173.76 3.78 173.74 3.27 173.72 3.19C173.69 3.07 173.65 2.98 173.58 2.91C173.51 2.84 173.4 2.79 173.24 2.76C172.92 2.7 172.7 2.65 172.59 2.62ZM191.09 8.03Q194.24 4.67 195.2 3.5C195.2 3.19 195.19 3.01 195.17 2.97C195.16 2.92 195.09 2.86 194.98 2.81C194.87 2.75 194.65 2.68 194.34 2.6C194.18 2.57 194.08 2.54 194.03 2.52C194.04 2.36 194.06 2.24 194.08 2.16L194.25 2.15C194.58 2.15 194.8 2.16 194.91 2.17C195.22 2.21 195.53 2.23 195.84 2.23C196.35 2.23 196.81 2.21 197.23 2.17Q197.46 2.14 197.59 2.14C197.68 2.14 197.8 2.15 197.97 2.16C197.96 2.33 197.95 2.47 197.94 2.6C197.49 2.7 197.19 2.79 197.05 2.85C196.91 2.91 196.84 3.01 196.84 3.17L196.84 4.07L196.85 5.46L196.84 6.26L196.85 7.38L196.85 8.27L196.87 9.01C196.87 9.16 196.86 9.32 196.85 9.51C196.94 9.54 197.01 9.56 197.08 9.57C197.45 9.66 197.73 9.74 197.92 9.83L197.94 10.27L197.69 10.27C197.62 10.27 197.54 10.27 197.46 10.26L197.01 10.24Q196.53 10.18 195.46 10.18C195.1 10.18 194.82 10.19 194.63 10.22Q194.26 10.26 194.18 10.26C194.14 10.26 194.08 10.25 194 10.22C194 10.02 194.01 9.89 194.03 9.82L194.43 9.72L194.66 9.67C194.91 9.63 195.07 9.6 195.15 9.57Q195.22 9.1 195.22 7.35L195.22 5.51L195.23 4.34L191.09 8.85C191.09 9.32 191.1 9.57 191.11 9.59C191.13 9.62 191.2 9.64 191.31 9.65L191.7 9.71C192.04 9.78 192.23 9.83 192.27 9.86C192.28 9.95 192.28 10.02 192.28 10.05C192.28 10.1 192.28 10.18 192.26 10.27L191.89 10.28C191.74 10.28 191.53 10.27 191.26 10.24L190.82 10.24L190.52 10.22L189.98 10.2C189.81 10.2 189.59 10.21 189.35 10.24C189.09 10.26 188.76 10.27 188.34 10.27C188.34 10.15 188.35 10 188.37 9.83C188.41 9.82 188.49 9.81 188.62 9.79L188.87 9.74C189.12 9.7 189.31 9.65 189.43 9.59Q189.49 8.41 189.49 7.53L189.49 6.7L189.51 4.58C189.51 3.94 189.49 3.39 189.45 2.94C189.44 2.91 189.43 2.87 189.41 2.8C189.38 2.79 189.35 2.78 189.3 2.78C189.26 2.77 189.23 2.77 189.19 2.76C189.01 2.73 188.84 2.71 188.7 2.7L188.61 2.67C188.5 2.66 188.42 2.64 188.36 2.62C188.35 2.5 188.35 2.42 188.35 2.39C188.35 2.34 188.36 2.27 188.38 2.18C188.47 2.16 188.56 2.15 188.66 2.15C188.95 2.15 189.28 2.17 189.67 2.21C190.01 2.24 190.3 2.26 190.53 2.26C190.85 2.26 191.14 2.25 191.41 2.22C191.74 2.18 191.94 2.16 191.99 2.16C192.07 2.16 192.16 2.17 192.28 2.19L192.28 2.38C192.28 2.45 192.28 2.53 192.26 2.62L191.22 2.8C191.16 2.81 191.13 2.9 191.11 3.09C191.1 3.28 191.1 3.5 191.1 3.76L191.1 4.06L191.1 4.62L191.1 4.94L191.08 5.37C191.08 5.42 191.09 5.52 191.1 5.66C191.1 5.85 191.11 6.04 191.11 6.22C191.11 6.37 191.1 6.52 191.1 6.67L191.08 7L191.09 8.03ZM208.4 10.27C208.4 10.15 208.41 10 208.43 9.83L209.17 9.69C209.26 9.67 209.37 9.64 209.5 9.59L209.58 8.03C209.56 7.47 209.55 7.04 209.55 6.76L209.56 6.61C209.57 6.44 209.58 6.01 209.58 5.33L209.56 5.14L209.58 4.62L209.57 4.07L209.57 3.81Q209.57 3.44 209.52 2.95C209.51 2.93 209.5 2.88 209.47 2.8C209.44 2.79 209.4 2.78 209.36 2.78C209.33 2.77 209.29 2.77 209.25 2.76C209.1 2.73 208.93 2.71 208.76 2.7L208.67 2.67C208.56 2.66 208.48 2.64 208.43 2.62C208.42 2.5 208.41 2.42 208.41 2.39C208.41 2.34 208.42 2.27 208.45 2.18C208.53 2.17 208.64 2.16 208.78 2.16C208.92 2.16 209.02 2.16 209.07 2.15C209.55 2.21 209.91 2.24 210.14 2.24C210.25 2.24 210.36 2.25 210.46 2.25Q210.63 2.26 210.75 2.26C210.88 2.26 211.2 2.24 211.7 2.2C211.79 2.18 211.88 2.17 211.98 2.17Q212.19 2.17 212.34 2.19C212.35 2.28 212.35 2.34 212.35 2.38C212.35 2.45 212.34 2.53 212.32 2.62L211.28 2.8C211.2 2.84 211.15 2.9 211.15 2.98L211.17 3.21L211.18 3.31L211.17 3.59L211.16 3.8L211.16 3.85C211.16 3.89 211.17 3.93 211.17 3.97L211.16 4.76C211.16 4.84 211.17 4.89 211.17 4.93C211.17 4.95 211.16 5.02 211.15 5.13C211.15 5.2 211.15 5.27 211.15 5.34C211.15 5.4 211.15 5.55 211.17 5.78C211.28 5.8 211.37 5.82 211.44 5.82L212.32 5.84L212.74 5.84L213.81 5.84L214.84 5.81C214.98 5.81 215.12 5.8 215.27 5.77C215.28 5.63 215.28 5.28 215.29 4.72L215.3 4.44L215.26 3.38L215.22 2.94C215.21 2.91 215.18 2.89 215.14 2.86C215 2.78 214.72 2.68 214.31 2.58C214.24 2.56 214.17 2.54 214.1 2.52C214.11 2.37 214.12 2.25 214.15 2.16C214.23 2.16 214.29 2.15 214.31 2.15L214.88 2.16Q215.43 2.23 216 2.23Q216.13 2.23 216.2 2.23L216.97 2.2C217.04 2.2 217.11 2.2 217.18 2.19C217.32 2.16 217.47 2.14 217.62 2.14C217.73 2.14 217.87 2.15 218.03 2.16C218.03 2.32 218.02 2.47 218 2.6C217.64 2.68 217.4 2.74 217.28 2.78C217.17 2.81 217.06 2.86 216.95 2.92L216.91 3.05L216.91 3.15L216.92 3.32L216.91 3.4C216.9 3.49 216.9 3.55 216.9 3.6L216.9 3.76Q216.91 4.04 216.91 4.07L216.91 4.86L216.91 5.46L216.9 6.26Q216.9 6.31 216.9 6.39Q216.9 6.7 216.92 7.38L216.92 8.27L216.93 9.01C216.93 9.15 216.93 9.32 216.92 9.51C217 9.54 217.08 9.56 217.15 9.57C217.52 9.66 217.8 9.74 217.99 9.83L218.01 10.27C217.85 10.27 217.76 10.27 217.73 10.27C217.54 10.27 217.32 10.26 217.08 10.24C216.75 10.2 216.23 10.18 215.52 10.18C215.19 10.18 214.78 10.21 214.26 10.26C214.21 10.26 214.14 10.25 214.06 10.22C214.07 10.03 214.08 9.9 214.09 9.82L214.55 9.71L215.03 9.62C215.07 9.61 215.13 9.59 215.21 9.57C215.25 9.23 215.28 8.67 215.28 7.88L215.29 7.35C215.26 7.13 215.25 6.87 215.25 6.56C215.11 6.55 214.95 6.54 214.78 6.53L212.04 6.5L211.98 6.5L211.94 6.49C211.91 6.49 211.88 6.49 211.85 6.5Q211.69 6.5 211.59 6.5L211.42 6.5C211.35 6.5 211.26 6.52 211.17 6.55L211.14 7.01L211.14 7.1C211.15 7.21 211.15 7.28 211.15 7.32L211.15 9.25C211.15 9.36 211.16 9.47 211.17 9.59L211.23 9.62L212.1 9.77C212.14 9.78 212.18 9.79 212.2 9.8C212.25 9.81 212.3 9.83 212.33 9.86C212.34 9.95 212.35 10.02 212.35 10.05C212.35 10.1 212.34 10.18 212.32 10.27C212.18 10.28 212.06 10.28 211.96 10.28C211.88 10.28 211.8 10.28 211.72 10.27C211.69 10.27 211.65 10.27 211.62 10.27L210.79 10.23C210.59 10.21 210.31 10.2 209.96 10.2L209.84 10.21C209.67 10.21 209.57 10.22 209.55 10.22C209.3 10.26 208.92 10.27 208.4 10.27ZM218.87 10.27C218.87 10.15 218.89 10 218.91 9.83L219.65 9.69C219.74 9.67 219.85 9.64 219.97 9.59L220.05 8.03C220.04 7.47 220.03 7.04 220.03 6.76L220.03 6.61C220.05 6.44 220.05 6.01 220.05 5.33L220.04 5.14L220.05 4.62L220.05 4.07L220.05 3.81C220.05 3.56 220.03 3.28 219.99 2.95C219.99 2.93 219.97 2.88 219.94 2.8C219.91 2.79 219.88 2.78 219.84 2.78C219.8 2.77 219.77 2.77 219.73 2.76C219.57 2.73 219.41 2.71 219.24 2.7L219.15 2.67C219.04 2.66 218.96 2.64 218.9 2.62C218.89 2.5 218.89 2.42 218.89 2.39C218.89 2.34 218.9 2.27 218.92 2.18Q219.04 2.16 219.25 2.16C219.39 2.16 219.49 2.16 219.55 2.15C220.03 2.21 220.39 2.24 220.62 2.24C220.73 2.24 220.83 2.25 220.94 2.25C221.05 2.26 221.14 2.26 221.23 2.26C221.36 2.26 221.67 2.24 222.18 2.2C222.26 2.18 222.35 2.17 222.45 2.17Q222.67 2.17 222.82 2.19C222.82 2.28 222.82 2.34 222.82 2.38C222.82 2.45 222.82 2.53 222.8 2.62L221.76 2.8C221.67 2.84 221.63 2.9 221.63 2.98L221.65 3.21L221.65 3.31L221.65 3.59L221.64 3.8L221.64 3.85C221.64 3.89 221.64 3.93 221.64 3.97L221.64 4.76C221.64 4.84 221.64 4.89 221.64 4.93C221.64 4.95 221.64 5.02 221.63 5.13C221.63 5.2 221.62 5.27 221.62 5.34C221.62 5.4 221.63 5.55 221.64 5.78C221.75 5.8 221.84 5.82 221.92 5.82L222.79 5.84L223.22 5.84L224.28 5.84L225.32 5.81C225.45 5.81 225.59 5.8 225.74 5.77C225.75 5.63 225.76 5.28 225.76 4.72L225.77 4.44L225.74 3.38L225.7 2.94C225.68 2.91 225.66 2.89 225.61 2.86C225.48 2.78 225.2 2.68 224.79 2.58C224.71 2.56 224.64 2.54 224.57 2.52C224.58 2.37 224.6 2.25 224.62 2.16Q224.75 2.15 224.78 2.15L225.35 2.16C225.72 2.21 226.09 2.23 226.47 2.23C226.56 2.23 226.63 2.23 226.68 2.23L227.45 2.2C227.52 2.2 227.59 2.2 227.65 2.19C227.8 2.16 227.94 2.14 228.09 2.14C228.21 2.14 228.34 2.15 228.5 2.16C228.5 2.32 228.49 2.47 228.48 2.6C228.11 2.68 227.87 2.74 227.76 2.78C227.65 2.81 227.54 2.86 227.42 2.92L227.39 3.05L227.39 3.15L227.39 3.32L227.39 3.4C227.38 3.49 227.38 3.55 227.38 3.6L227.38 3.76C227.38 3.94 227.38 4.05 227.38 4.07L227.38 4.86L227.39 5.46L227.38 6.26C227.37 6.29 227.37 6.34 227.37 6.39C227.37 6.6 227.38 6.93 227.39 7.38L227.39 8.27L227.41 9.01C227.41 9.15 227.4 9.32 227.39 9.51C227.48 9.54 227.55 9.56 227.62 9.57C227.99 9.66 228.27 9.74 228.46 9.83L228.48 10.27C228.32 10.27 228.23 10.27 228.2 10.27C228.01 10.27 227.8 10.26 227.55 10.24C227.23 10.2 226.71 10.18 225.99 10.18C225.67 10.18 225.25 10.21 224.74 10.26C224.68 10.26 224.62 10.25 224.54 10.22C224.54 10.03 224.55 9.9 224.57 9.82L225.02 9.71L225.5 9.62C225.55 9.61 225.61 9.59 225.68 9.57C225.73 9.23 225.75 8.67 225.76 7.88L225.76 7.35C225.74 7.13 225.73 6.87 225.73 6.56C225.58 6.55 225.42 6.54 225.25 6.53L222.51 6.5L222.46 6.5L222.42 6.49C222.39 6.49 222.36 6.49 222.32 6.5C222.22 6.5 222.13 6.5 222.06 6.5L221.9 6.5C221.82 6.5 221.74 6.52 221.64 6.55L221.62 7.01L221.62 7.1C221.63 7.21 221.63 7.28 221.63 7.32L221.63 9.25C221.63 9.36 221.64 9.47 221.65 9.59L221.71 9.62L222.58 9.77C222.62 9.78 222.65 9.79 222.68 9.8C222.73 9.81 222.77 9.83 222.81 9.86C222.82 9.95 222.82 10.02 222.82 10.05C222.82 10.1 222.82 10.18 222.8 10.27C222.66 10.28 222.54 10.28 222.44 10.28C222.35 10.28 222.27 10.28 222.2 10.27C222.16 10.27 222.13 10.27 222.1 10.27L221.26 10.23C221.07 10.21 220.79 10.2 220.44 10.2L220.31 10.21C220.15 10.21 220.05 10.22 220.02 10.22C219.78 10.26 219.39 10.27 218.87 10.27ZM263.4 2.62L263.39 2.14L264.8 2.23L265.44 2.23L265.67 2.23C265.91 2.23 266.28 2.21 266.79 2.18C267.09 2.16 267.27 2.15 267.34 2.15C267.84 2.15 268.22 2.18 268.47 2.24C268.85 2.32 269.16 2.46 269.38 2.64C269.61 2.83 269.81 3.09 269.97 3.43C270.13 3.77 270.22 4.08 270.22 4.37C270.22 5.1 270 5.69 269.57 6.15C269.14 6.6 268.59 6.82 267.94 6.82C267.71 6.82 267.49 6.79 267.28 6.73C267.07 6.67 266.88 6.59 266.7 6.47Q266.67 6.29 266.67 5.97C266.76 5.98 266.85 5.98 266.92 5.99C267 5.99 267.07 6 267.13 6C267.47 6 267.75 5.9 267.98 5.7Q268 5.68 268.03 5.65Q268.43 5.27 268.43 4.46C268.43 4.05 268.37 3.72 268.23 3.46C268.1 3.2 267.95 3.02 267.76 2.93C267.51 2.8 267.23 2.74 266.91 2.74C266.62 2.74 266.41 2.79 266.28 2.88C266.25 2.93 266.23 2.99 266.21 3.04L266.25 5.98L266.24 6.23L266.26 6.5C266.26 6.55 266.26 6.64 266.26 6.75L266.26 7.27L266.27 8.08L266.26 9.06C266.26 9.2 266.27 9.38 266.29 9.62L267.47 9.77C267.48 9.87 267.49 9.95 267.49 10.01C267.49 10.07 267.48 10.16 267.46 10.27C267.36 10.29 267.29 10.3 267.24 10.3C267.12 10.3 266.89 10.28 266.55 10.26Q266.04 10.21 265.39 10.21C264.9 10.21 264.43 10.24 263.99 10.31C263.92 10.32 263.8 10.33 263.64 10.34C263.62 10.22 263.61 10.13 263.61 10.07C263.61 10.03 263.62 9.97 263.63 9.89L263.99 9.77C264.24 9.69 264.45 9.59 264.63 9.48C264.67 9.36 264.68 9.25 264.68 9.15C264.68 9.11 264.68 9.06 264.68 9C264.67 8.88 264.67 8.69 264.67 8.46L264.65 6.7L264.59 4.72C264.56 3.78 264.54 3.27 264.52 3.19C264.5 3.07 264.45 2.98 264.38 2.91C264.32 2.84 264.2 2.79 264.04 2.76C263.72 2.7 263.5 2.65 263.4 2.62ZM287.75 2.62L287.75 2.14L289.16 2.23L289.79 2.23L290.02 2.23C290.26 2.23 290.64 2.21 291.15 2.18C291.44 2.16 291.63 2.15 291.7 2.15C292.2 2.15 292.57 2.18 292.82 2.24C293.21 2.32 293.51 2.46 293.74 2.64C293.97 2.83 294.16 3.09 294.32 3.43C294.49 3.77 294.57 4.08 294.57 4.37Q294.57 5.19 294.21 5.78L294.21 5.78Q294.08 5.98 293.92 6.15C293.49 6.6 292.95 6.82 292.29 6.82C292.06 6.82 291.84 6.79 291.64 6.73C291.43 6.67 291.24 6.59 291.06 6.47C291.04 6.35 291.03 6.18 291.03 5.97C291.12 5.98 291.21 5.98 291.28 5.99Q291.4 6 291.49 6C291.82 6 292.1 5.9 292.33 5.7Q292.36 5.68 292.39 5.65Q292.79 5.27 292.79 4.46C292.79 4.05 292.72 3.72 292.59 3.46C292.46 3.2 292.3 3.02 292.12 2.93Q291.74 2.74 291.27 2.74C290.97 2.74 290.76 2.79 290.64 2.88C290.6 2.93 290.58 2.99 290.57 3.04L290.61 5.98L290.6 6.23L290.61 6.5C290.62 6.55 290.62 6.64 290.62 6.75L290.62 7.27L290.62 8.08L290.61 9.06C290.61 9.2 290.62 9.38 290.65 9.62L291.82 9.77C291.84 9.87 291.85 9.95 291.85 10.01C291.85 10.07 291.84 10.16 291.82 10.27C291.72 10.29 291.65 10.3 291.59 10.3C291.47 10.3 291.24 10.28 290.9 10.26Q290.39 10.21 289.74 10.21C289.26 10.21 288.79 10.24 288.35 10.31C288.27 10.32 288.16 10.33 287.99 10.34C287.98 10.22 287.97 10.13 287.97 10.07C287.97 10.03 287.97 9.97 287.98 9.89L288.34 9.77C288.59 9.69 288.81 9.59 288.99 9.48C289.02 9.36 289.04 9.25 289.04 9.15C289.04 9.11 289.04 9.06 289.03 9C289.03 8.88 289.03 8.69 289.03 8.46L289.01 6.7L288.95 4.72C288.92 3.78 288.9 3.27 288.88 3.19C288.85 3.07 288.81 2.98 288.74 2.91C288.67 2.84 288.56 2.79 288.4 2.76C288.07 2.7 287.86 2.65 287.75 2.62ZM232.15 5.64Q232.79 5.59 233.32 5.59C234.43 5.59 235.25 5.81 235.78 6.24Q236.25 6.63 236.44 7.12Q236.57 7.46 236.57 7.85C236.57 8.6 236.28 9.2 235.69 9.66C235.11 10.1 234.37 10.32 233.49 10.32C233.33 10.32 233.06 10.31 232.68 10.28C232.42 10.26 232.1 10.25 231.72 10.25C231.56 10.25 231.24 10.26 230.79 10.29L229.4 10.35L229.42 9.85C229.49 9.82 229.61 9.8 229.76 9.78Q230.18 9.72 230.38 9.62C230.49 9.52 230.54 9.09 230.54 8.31C230.54 6.84 230.53 5.57 230.51 4.49C230.49 3.42 230.46 2.85 230.41 2.8C230.37 2.74 230.24 2.7 230.01 2.69C229.93 2.69 229.73 2.66 229.43 2.62L229.42 2.18L229.68 2.17C230 2.17 230.42 2.2 230.96 2.24L231.46 2.28C231.58 2.28 231.75 2.27 231.99 2.25L232.34 2.22C232.57 2.2 232.73 2.19 232.82 2.18C232.96 2.16 233.11 2.15 233.28 2.15L233.28 2.28L233.27 2.49C233.27 2.52 233.26 2.55 233.26 2.6C232.66 2.72 232.32 2.82 232.25 2.89C232.18 2.95 232.14 3.14 232.14 3.45L232.15 3.76C232.15 3.92 232.16 4.12 232.16 4.39L232.15 5.64ZM237.07 10.3L237.07 9.85C237.15 9.82 237.28 9.79 237.46 9.74C237.72 9.68 237.91 9.61 238.03 9.54C238.11 9.41 238.14 9.23 238.14 9L238.13 8.26L238.15 6.83L238.14 6.5C238.17 5.67 238.18 5.24 238.18 5.22L238.17 4.39L238.19 4.05L238.16 3.34L238.15 3.07Q238.15 3 238.11 2.87C237.95 2.79 237.69 2.74 237.33 2.72C237.24 2.71 237.17 2.71 237.12 2.7L237.1 2.15L238.79 2.22C239 2.23 239.13 2.23 239.18 2.23Q239.53 2.23 240.3 2.18C240.59 2.16 240.77 2.15 240.84 2.15Q240.85 2.27 240.85 2.35C240.85 2.42 240.84 2.51 240.84 2.62C240.68 2.68 240.5 2.74 240.29 2.79Q239.99 2.87 239.8 2.95C239.77 3.06 239.76 3.21 239.76 3.42C239.76 3.6 239.77 3.74 239.78 3.86C239.77 4.56 239.76 5.1 239.76 5.48L239.77 7.13L239.75 7.97L239.76 9.22L239.75 9.46C239.75 9.49 239.76 9.54 239.78 9.61C240.02 9.66 240.24 9.7 240.43 9.72C240.47 9.72 240.59 9.74 240.8 9.77C240.81 9.89 240.82 10 240.82 10.08C240.82 10.13 240.82 10.2 240.81 10.29C240.76 10.29 240.72 10.3 240.69 10.3C240.57 10.31 240.5 10.31 240.48 10.31C240.45 10.31 240.4 10.31 240.32 10.29C240.27 10.28 240.01 10.26 239.54 10.21L238.49 10.19C238.28 10.19 237.98 10.21 237.58 10.26C237.32 10.28 237.15 10.3 237.07 10.3ZM287.46 4.31L287.21 4.32C287.16 4.32 287.09 4.31 287.01 4.31C286.97 4.23 286.92 4.1 286.86 3.94L286.63 3.49C286.54 3.3 286.41 3.1 286.25 2.92C286.19 2.89 286.06 2.88 285.87 2.87L284.52 2.79L283.71 2.8L283.37 2.8C283.34 2.87 283.32 2.95 283.32 3.06L283.33 6.01L283.32 6.41L283.34 6.78L283.36 7.24C283.36 7.36 283.35 7.55 283.34 7.82Q283.32 8.02 283.32 8.15L283.35 8.66L283.34 8.86C283.35 9.05 283.36 9.18 283.36 9.27Q283.36 9.36 283.39 9.45Q283.39 9.47 283.4 9.49C283.43 9.51 283.55 9.55 283.76 9.61L283.95 9.66C284.06 9.69 284.16 9.72 284.23 9.72C284.37 9.74 284.46 9.76 284.5 9.81Q284.56 9.86 284.56 10.04C284.56 10.22 284.5 10.31 284.39 10.31C284.34 10.31 284.17 10.3 283.87 10.27L283.56 10.26L283.48 10.25C283.34 10.24 283.22 10.24 283.12 10.24L282.5 10.25L281.65 10.25L280.85 10.29L280.62 10.29C280.58 10.29 280.54 10.28 280.51 10.26C280.51 10.2 280.5 10.15 280.5 10.11C280.5 10.05 280.51 9.97 280.51 9.86C280.56 9.82 280.65 9.77 280.81 9.74C280.89 9.72 280.98 9.68 281.07 9.64L281.3 9.55C281.47 9.49 281.58 9.45 281.6 9.42C281.63 9.39 281.66 9.28 281.68 9.09C281.7 8.89 281.72 8.75 281.72 8.67L281.7 7.35L281.69 6.55L281.7 5.9L281.69 5.28C281.69 4.96 281.68 4.51 281.66 3.95L281.67 3.16Q281.67 2.94 281.61 2.88C281.57 2.84 281.48 2.82 281.32 2.82C281.27 2.82 281.11 2.8 280.85 2.75C280.59 2.7 280.44 2.67 280.42 2.65Q280.37 2.57 280.37 2.28C280.37 2.24 280.38 2.2 280.39 2.15L280.55 2.15C280.63 2.15 280.8 2.16 281.07 2.18L282.78 2.25L285.11 2.23L285.9 2.22C286.42 2.22 286.91 2.25 287.34 2.31C287.41 2.38 287.45 2.49 287.45 2.65L287.46 4.31ZM303.1 10.29L303.12 9.87C303.61 9.8 303.92 9.69 304.06 9.55C304.14 9.45 304.21 9.19 304.26 8.77L304.33 6.54L304.42 4.27C304.43 4.14 304.43 4.05 304.43 4.02C304.43 3.44 304.4 3.1 304.33 3C304.27 2.91 304.02 2.82 303.58 2.74C303.47 2.71 303.38 2.69 303.32 2.67C303.31 2.57 303.31 2.48 303.31 2.41L303.31 2.22C303.45 2.2 303.62 2.2 303.82 2.2L305.55 2.26C305.59 2.26 305.65 2.27 305.72 2.27L305.99 2.28C306.06 2.37 306.12 2.48 306.19 2.62Q306.41 3.07 306.77 3.96L306.83 4.12L307.76 6.25C307.78 6.3 307.81 6.37 307.85 6.46Q307.94 6.69 308.03 6.9C308.1 7.03 308.16 7.18 308.23 7.34C308.3 7.5 308.37 7.65 308.43 7.77C308.49 7.67 308.54 7.56 308.59 7.44C308.75 7.06 308.9 6.7 309.05 6.38C309.31 5.82 309.66 4.95 310.11 3.78C310.18 3.59 310.3 3.31 310.46 2.94C310.62 2.56 310.71 2.36 310.73 2.33C310.76 2.3 310.84 2.28 310.94 2.28C310.98 2.28 311.04 2.28 311.13 2.28C311.33 2.27 311.58 2.26 311.87 2.25C312.28 2.24 312.61 2.23 312.86 2.21Q313.24 2.17 313.28 2.17C313.32 2.17 313.37 2.18 313.43 2.18C313.43 2.24 313.43 2.29 313.43 2.32L313.42 2.51C313.42 2.55 313.42 2.6 313.41 2.68C313.04 2.74 312.74 2.83 312.51 2.94C312.35 3.03 312.27 3.13 312.27 3.25L312.27 3.35L312.37 5.26Q312.39 5.53 312.46 7.87C312.47 8.22 312.5 8.67 312.54 9.2C312.55 9.27 312.55 9.32 312.55 9.36C312.56 9.46 312.57 9.53 312.61 9.55C312.65 9.58 313 9.71 313.67 9.92C313.68 9.98 313.68 10.03 313.68 10.07C313.68 10.16 313.68 10.24 313.67 10.33C313.57 10.33 313.3 10.31 312.87 10.26C312.44 10.21 312.04 10.19 311.66 10.19Q310.81 10.19 310 10.26C309.93 10.27 309.86 10.28 309.79 10.28L309.8 9.85C309.96 9.78 310.18 9.73 310.45 9.68C310.64 9.65 310.76 9.59 310.81 9.51C310.86 9.43 310.88 9.21 310.88 8.85C310.88 8.71 310.88 8.59 310.88 8.49C310.86 8.05 310.85 7.44 310.84 6.66L310.74 4.45C310.73 4.14 310.72 3.92 310.7 3.8L309.23 7.38C309.19 7.46 309.14 7.58 309.07 7.74C308.98 7.94 308.92 8.08 308.89 8.16Q308.43 9.32 308.25 9.93C308.22 10.03 308.17 10.17 308.11 10.34L307.66 10.33L307.34 9.37C307.24 9.12 307.08 8.74 306.85 8.23C306.72 7.94 306.61 7.7 306.54 7.52C306.5 7.44 306.48 7.38 306.46 7.35L306.39 7.19C306.39 7.16 306.38 7.14 306.37 7.13L305.49 5.12L304.95 3.9L304.91 6.86L304.87 8.78C304.87 9.1 304.92 9.32 305.03 9.46C305.15 9.59 305.39 9.71 305.76 9.81L306.04 9.88L306.04 10.34C305.81 10.33 305.57 10.32 305.3 10.29C305.04 10.25 304.7 10.24 304.26 10.24C304.17 10.24 303.78 10.26 303.1 10.29ZM314.2 10.29L314.22 9.87C314.71 9.8 315.02 9.69 315.16 9.55C315.24 9.45 315.31 9.19 315.36 8.77L315.44 6.54L315.52 4.27C315.53 4.14 315.54 4.05 315.54 4.02C315.54 3.44 315.5 3.1 315.44 3C315.37 2.91 315.12 2.82 314.68 2.74C314.57 2.71 314.48 2.69 314.42 2.67C314.41 2.57 314.41 2.48 314.41 2.41L314.41 2.22C314.55 2.2 314.72 2.2 314.92 2.2L316.65 2.26C316.69 2.26 316.75 2.27 316.82 2.27L317.09 2.28C317.16 2.37 317.23 2.48 317.29 2.62Q317.51 3.07 317.87 3.96L317.94 4.12L318.86 6.25C318.88 6.3 318.91 6.37 318.95 6.46C319.01 6.61 319.07 6.76 319.14 6.9C319.2 7.03 319.26 7.18 319.33 7.34C319.4 7.5 319.47 7.65 319.53 7.77C319.59 7.67 319.64 7.56 319.69 7.44C319.85 7.06 320 6.7 320.15 6.38C320.41 5.82 320.77 4.95 321.21 3.78C321.28 3.59 321.4 3.31 321.56 2.94C321.73 2.56 321.82 2.36 321.83 2.33C321.87 2.3 321.94 2.28 322.04 2.28C322.08 2.28 322.15 2.28 322.23 2.28C322.43 2.27 322.68 2.26 322.97 2.25C323.38 2.24 323.71 2.23 323.96 2.21Q324.34 2.17 324.39 2.17C324.43 2.17 324.47 2.18 324.53 2.18C324.53 2.24 324.53 2.29 324.53 2.32L324.52 2.51C324.52 2.55 324.52 2.6 324.52 2.68C324.15 2.74 323.84 2.83 323.61 2.94C323.45 3.03 323.37 3.13 323.37 3.25L323.37 3.35L323.47 5.26C323.48 5.44 323.51 6.31 323.56 7.87C323.58 8.22 323.6 8.67 323.64 9.2C323.65 9.27 323.65 9.32 323.65 9.36C323.66 9.46 323.68 9.53 323.71 9.55C323.75 9.58 324.11 9.71 324.78 9.92C324.78 9.98 324.78 10.03 324.78 10.07C324.78 10.16 324.78 10.24 324.78 10.33C324.67 10.33 324.4 10.31 323.97 10.26C323.54 10.21 323.14 10.19 322.77 10.19C322.19 10.19 321.64 10.21 321.1 10.26C321.03 10.27 320.96 10.28 320.89 10.28L320.9 9.85C321.07 9.78 321.28 9.73 321.55 9.68C321.74 9.65 321.86 9.59 321.91 9.51C321.96 9.43 321.99 9.21 321.99 8.85C321.99 8.71 321.98 8.59 321.98 8.49C321.96 8.05 321.95 7.44 321.94 6.66L321.84 4.45C321.83 4.14 321.82 3.92 321.8 3.8L320.33 7.38Q320.28 7.5 320.17 7.74C320.08 7.94 320.02 8.08 319.99 8.16Q319.53 9.32 319.35 9.93C319.32 10.03 319.28 10.17 319.21 10.34L318.76 10.33L318.44 9.37C318.34 9.12 318.18 8.74 317.95 8.23C317.82 7.94 317.72 7.7 317.64 7.52C317.6 7.44 317.58 7.38 317.56 7.35L317.49 7.19C317.49 7.16 317.48 7.14 317.48 7.13L316.59 5.12L316.06 3.9L316.01 6.86L315.97 8.78C315.97 9.1 316.02 9.32 316.13 9.46C316.25 9.59 316.49 9.71 316.86 9.81L317.14 9.88L317.14 10.34C316.92 10.33 316.67 10.32 316.41 10.29C316.15 10.25 315.8 10.24 315.37 10.24C315.27 10.24 314.89 10.26 314.2 10.29ZM241.35 2.2C241.49 2.19 241.61 2.19 241.69 2.19C241.79 2.19 241.87 2.19 241.92 2.2L242.24 2.22L242.39 2.22C242.41 2.22 242.48 2.23 242.6 2.25Q242.94 2.3 243.56 2.3C244.07 2.3 244.55 2.27 245.01 2.2C245.07 2.21 245.14 2.21 245.22 2.22C245.21 2.36 245.21 2.5 245.21 2.64C245.15 2.66 245.1 2.68 245.08 2.69L244.5 2.8C244.45 2.81 244.38 2.83 244.3 2.87C244.3 2.94 244.31 3 244.32 3.03C244.61 3.55 244.88 3.98 245.13 4.33L245.71 5.2L245.77 5.3L246.11 4.86L246.84 3.73C247.02 3.45 247.13 3.24 247.18 3.1C247.2 3.06 247.2 3.02 247.2 2.99L247.19 2.89C247.11 2.84 247.04 2.81 247 2.8C246.97 2.79 246.89 2.79 246.77 2.79C246.57 2.78 246.38 2.76 246.22 2.74C246.21 2.65 246.2 2.59 246.2 2.55C246.2 2.53 246.21 2.48 246.22 2.4C246.22 2.37 246.22 2.32 246.22 2.25C246.27 2.25 246.3 2.24 246.34 2.22C246.7 2.25 247.43 2.26 248.54 2.26C248.68 2.26 248.81 2.25 248.92 2.24C249.03 2.23 249.1 2.22 249.12 2.22C249.16 2.22 249.22 2.23 249.3 2.24C249.32 2.32 249.33 2.4 249.33 2.47C249.33 2.51 249.32 2.57 249.32 2.67L248.41 2.87C248.33 2.9 248.25 2.96 248.16 3.05C248.07 3.13 247.83 3.44 247.43 3.99L246.57 5.16C246.47 5.3 246.39 5.42 246.32 5.51C246.26 5.59 246.2 5.67 246.15 5.73L246.24 5.86C246.46 6.19 246.68 6.52 246.9 6.86L248.08 8.7C248.39 9.19 248.62 9.49 248.77 9.6C248.88 9.68 249.15 9.76 249.58 9.85C249.59 9.93 249.6 9.99 249.6 10.01C249.6 10.03 249.59 10.11 249.57 10.24L249.59 10.3L249.17 10.31C249.08 10.31 248.9 10.3 248.63 10.28L247.91 10.23L247.83 10.22Q247.71 10.21 247.66 10.21C247.41 10.21 247.12 10.23 246.78 10.26C246.44 10.28 246.19 10.3 246.03 10.3C245.93 10.3 245.76 10.3 245.53 10.29L245.53 10.12Q245.53 10.01 245.54 9.89C245.85 9.81 246.16 9.74 246.49 9.69C246.54 9.66 246.59 9.63 246.64 9.6L246.65 9.53C246.65 9.49 246.64 9.45 246.63 9.42C246.61 9.34 246.55 9.22 246.46 9.07C246.29 8.78 246.06 8.43 245.76 8.02L245.06 7.02C244.97 7.13 244.65 7.6 244.11 8.41C243.93 8.62 243.79 8.84 243.67 9.09C243.59 9.24 243.55 9.34 243.55 9.38L243.56 9.43L243.63 9.54C243.78 9.61 243.96 9.69 244.18 9.76C244.39 9.83 244.53 9.88 244.6 9.91L244.63 10.19L244.63 10.22L244.62 10.29C244.51 10.31 244.43 10.32 244.39 10.32C244.33 10.32 244.14 10.3 243.82 10.27C243.72 10.26 243.52 10.25 243.25 10.24L242.97 10.24L241.66 10.3C241.64 10.3 241.54 10.3 241.39 10.29L241.36 10.01C241.36 9.97 241.37 9.92 241.38 9.85C241.45 9.84 241.53 9.83 241.63 9.82C241.94 9.79 242.18 9.73 242.34 9.64C242.41 9.61 242.54 9.48 242.72 9.26C243 8.94 243.25 8.62 243.47 8.3C243.6 8.12 243.71 7.98 243.78 7.89C243.99 7.59 244.3 7.15 244.72 6.58L244.37 6.03C244.12 5.7 243.92 5.42 243.79 5.21L243.44 4.67C243.3 4.44 243.22 4.29 243.17 4.23C242.98 3.97 242.76 3.63 242.5 3.19C242.4 3.03 242.27 2.92 242.12 2.84C241.97 2.77 241.72 2.72 241.37 2.7L241.37 2.6C241.37 2.56 241.37 2.52 241.36 2.5C241.35 2.42 241.34 2.37 241.34 2.35L241.35 2.2ZM76.55 2.2C76.78 2.21 76.97 2.23 77.14 2.25Q77.6 2.32 78.22 2.32C78.36 2.32 78.72 2.31 79.31 2.28C80.19 2.25 80.98 2.23 81.69 2.23L82.76 2.22C83 2.22 83.36 2.25 83.83 2.31Q83.83 2.31 83.83 2.31L83.83 2.31Q83.93 2.44 83.93 2.65L83.93 3.94L83.95 4.19C83.95 4.22 83.94 4.26 83.94 4.31L83.7 4.32C83.67 4.32 83.6 4.31 83.5 4.31C83.46 4.22 83.41 4.1 83.36 3.94L83.12 3.49C83.03 3.3 82.9 3.11 82.74 2.92C82.64 2.89 82.52 2.87 82.36 2.87C82.32 2.86 82.2 2.85 82 2.84C81.63 2.8 81.24 2.79 80.82 2.79Q80.1 2.79 79.53 2.81C79.52 2.91 79.51 3.33 79.51 4.04L79.52 5.09L79.52 5.88C79.62 5.89 79.71 5.9 79.78 5.9C80.48 5.9 80.99 5.89 81.29 5.86C81.59 5.83 81.77 5.79 81.84 5.74C81.91 5.68 81.98 5.59 82.03 5.46C82.07 5.37 82.14 5.06 82.24 4.54L82.31 4.54L82.66 4.54C82.67 4.91 82.68 5.2 82.68 5.39C82.68 5.83 82.68 6.11 82.67 6.23C82.67 6.36 82.66 6.46 82.66 6.53Q82.66 6.7 82.68 7.07C82.69 7.32 82.7 7.5 82.7 7.62L82.7 7.76L82.28 7.76C82.26 7.69 82.23 7.55 82.19 7.35Q82.07 6.76 81.98 6.62C81.93 6.55 81.85 6.49 81.74 6.45C81.66 6.42 81.37 6.41 80.87 6.41C80.27 6.41 79.82 6.42 79.52 6.46C79.52 6.57 79.52 6.64 79.52 6.67C79.52 7.17 79.53 7.58 79.54 7.91L79.53 9.26C79.53 9.42 79.58 9.53 79.69 9.59C79.85 9.67 80.35 9.72 81.17 9.72C81.72 9.72 82.19 9.67 82.57 9.59C82.83 9.52 83.07 9.38 83.27 9.17C83.53 8.89 83.76 8.5 83.93 7.99C84.06 7.98 84.16 7.97 84.24 7.97C84.28 7.97 84.34 7.97 84.43 7.98C84.42 8.08 84.41 8.17 84.4 8.24L84.37 8.43L84.15 9.61L84.04 10.32C83.78 10.34 83.58 10.34 83.43 10.34C83.21 10.34 82.62 10.32 81.66 10.28C80.99 10.25 80.18 10.24 79.23 10.24C78.76 10.24 78.17 10.26 77.48 10.3L77.24 10.3L76.52 10.32L76.52 9.89C76.6 9.87 76.75 9.85 76.97 9.82Q77.59 9.75 77.82 9.62C77.87 9.5 77.89 9.35 77.89 9.17C77.89 9.1 77.88 8.98 77.88 8.8L77.89 8.61L77.87 6.25L77.88 5.54L77.85 4.54L77.85 3.84L77.8 3.06C77.8 3.04 77.79 3 77.79 2.94C77.75 2.89 77.69 2.86 77.61 2.85C77.57 2.84 77.51 2.83 77.43 2.81C77.21 2.76 76.99 2.73 76.78 2.72C76.71 2.72 76.62 2.71 76.52 2.7L76.55 2.2ZM50.33 2.65C49.98 2.65 49.68 2.74 49.42 2.91C49.15 3.08 48.95 3.26 48.82 3.47C48.59 3.81 48.43 4.19 48.34 4.61C48.25 5.01 48.2 5.51 48.2 6.1C48.2 6.46 48.21 6.72 48.24 6.87C48.25 6.92 48.26 7.01 48.28 7.13C48.31 7.44 48.35 7.66 48.4 7.8C48.57 8.33 48.69 8.66 48.76 8.79C48.88 9 49.05 9.21 49.29 9.42C49.4 9.53 49.58 9.63 49.8 9.72C50.03 9.81 50.25 9.85 50.47 9.85C50.9 9.85 51.29 9.74 51.66 9.54C52.02 9.32 52.32 8.96 52.54 8.46C52.76 7.96 52.87 7.3 52.87 6.49C52.87 6.16 52.85 5.7 52.8 5.13L52.77 5.01C52.76 4.98 52.74 4.89 52.72 4.76C52.57 4.07 52.29 3.55 51.88 3.19C51.47 2.83 50.95 2.65 50.33 2.65ZM115.7 2.65C115.36 2.65 115.05 2.74 114.79 2.91C114.52 3.08 114.32 3.26 114.19 3.47C113.97 3.81 113.81 4.19 113.71 4.61Q113.57 5.22 113.57 6.1C113.57 6.46 113.58 6.72 113.61 6.87C113.62 6.92 113.63 7.01 113.65 7.13C113.68 7.44 113.72 7.66 113.77 7.8C113.94 8.33 114.06 8.66 114.13 8.79C114.25 9 114.43 9.21 114.66 9.42C114.78 9.53 114.95 9.63 115.17 9.72C115.4 9.81 115.62 9.85 115.85 9.85C116.27 9.85 116.67 9.74 117.03 9.54C117.4 9.32 117.69 8.96 117.91 8.46C118.13 7.96 118.24 7.3 118.24 6.49C118.24 6.16 118.22 5.7 118.18 5.13L118.15 5.01C118.13 4.98 118.11 4.89 118.09 4.76C117.94 4.07 117.66 3.55 117.25 3.19C116.84 2.83 116.32 2.65 115.7 2.65ZM202.99 2.65C202.65 2.65 202.34 2.74 202.08 2.91C201.82 3.08 201.62 3.26 201.48 3.47C201.26 3.81 201.1 4.19 201 4.61C200.91 5.01 200.86 5.51 200.86 6.1C200.86 6.46 200.88 6.72 200.9 6.87C200.91 6.92 200.92 7.01 200.94 7.13C200.97 7.44 201.02 7.66 201.06 7.8C201.23 8.33 201.35 8.66 201.42 8.79C201.54 9 201.72 9.21 201.95 9.42C202.07 9.53 202.24 9.63 202.46 9.72C202.69 9.81 202.91 9.85 203.14 9.85C203.56 9.85 203.96 9.74 204.32 9.54C204.69 9.32 204.98 8.96 205.2 8.46C205.42 7.96 205.53 7.3 205.53 6.49C205.53 6.16 205.51 5.7 205.47 5.13L205.44 5.01C205.43 4.98 205.41 4.89 205.38 4.76C205.23 4.07 204.95 3.55 204.54 3.19C204.13 2.83 203.61 2.65 202.99 2.65ZM275.11 2.65Q274.72 2.65 274.4 2.8Q274.3 2.85 274.2 2.91C273.94 3.08 273.74 3.26 273.6 3.47C273.38 3.81 273.22 4.19 273.13 4.61C273.03 5.01 272.98 5.51 272.98 6.1C272.98 6.46 273 6.72 273.03 6.87C273.03 6.92 273.04 7.01 273.06 7.13C273.1 7.44 273.14 7.66 273.19 7.8C273.35 8.33 273.47 8.66 273.54 8.79Q273.72 9.1 274.07 9.42C274.19 9.53 274.36 9.63 274.59 9.72Q274.92 9.85 275.26 9.85C275.69 9.85 276.08 9.74 276.44 9.54C276.81 9.32 277.1 8.96 277.32 8.46Q277.65 7.7 277.65 6.49C277.65 6.16 277.63 5.7 277.59 5.13L277.56 5.01C277.55 4.98 277.53 4.89 277.5 4.76C277.35 4.07 277.07 3.55 276.66 3.19C276.25 2.83 275.74 2.65 275.11 2.65ZM10.06 6.78Q11.45 6.8 11.69 6.8L11.84 6.8C11.72 6.42 11.57 5.99 11.38 5.5C11.19 5 11.04 4.63 10.92 4.37L10.06 6.78ZM297.54 6.78C298.46 6.8 299 6.8 299.17 6.8L299.31 6.8C299.2 6.42 299.04 5.99 298.85 5.5C298.66 5 298.51 4.63 298.39 4.37L297.54 6.78ZM232.23 9.59C232.48 9.7 232.72 9.76 232.94 9.76C234.22 9.76 234.86 9.17 234.86 8C234.86 6.77 234.22 6.15 232.93 6.15C232.58 6.15 232.32 6.17 232.16 6.21C232.15 6.37 232.15 6.5 232.15 6.59L232.16 6.98L232.15 7.91L232.17 9.2L232.17 9.3C232.17 9.39 232.19 9.48 232.23 9.59ZM124.21 7.12L126.07 7.12L127.01 7.11C127.14 7.11 127.26 7.12 127.37 7.13C127.39 7.33 127.4 7.48 127.41 7.57L127.42 7.68L127.39 8C127.39 8.05 127.39 8.12 127.39 8.19L127.39 8.3L124.18 8.31C124.18 8.19 124.18 8.1 124.18 8.03C124.18 7.93 124.18 7.81 124.19 7.68C124.19 7.62 124.19 7.57 124.19 7.54L124.19 7.23L124.21 7.12Z" fill="#FFFFFF" fill-opacity="1.000000" fill-rule="evenodd"/>
</svg>
